<svg width="90" height="90" viewBox="0 0 90 90" fill="none" xmlns="http://www.w3.org/2000/svg">
<circle cx="45" cy="45" r="45" fill="#E2F3FF"/>
<path d="M63 32H27C25.8954 32 25 32.8954 25 34V52C25 53.1046 25.8954 54 27 54H63C64.1046 54 65 53.1046 65 52V34C65 32.8954 64.1046 32 63 32Z" fill="white"/>
<path d="M29.4345 35.68C27.6296 37.2838 25.7017 37.7773 23.6098 36.9137C21.969 36.2557 21.6408 35.4333 22.4612 33.9118C23.5277 31.7734 24.7583 29.7173 25.8248 27.5789C26.4401 26.3041 27.3425 25.7695 28.7371 25.8107C31.4034 25.8518 34.0696 25.8107 36.7358 25.8107C44.6525 25.8107 52.5692 25.8518 60.5269 25.7695C62.4138 25.7695 63.6033 26.3452 64.4237 28.0724C65.3671 30.1285 66.5977 32.0201 67.6232 34.0351C68.3205 35.3922 68.0744 36.1735 66.6797 36.8315C64.4647 37.8595 62.4138 37.3249 60.6089 35.7212C58.0247 37.7773 55.4815 37.9829 52.8563 35.7212C50.3131 37.7362 47.6879 37.9829 45.0627 35.7212C42.5195 37.8184 39.9763 37.9418 37.3101 35.7212C34.7669 37.7362 32.1417 37.9829 29.4345 35.68Z" fill="#1483F8"/>
<path opacity="0.5" d="M63.4392 38.8094C64.5057 38.6861 65.3671 38.6038 66.4336 38.4805C66.5156 39.2618 66.5976 39.8786 66.5976 40.5366C66.5976 45.1834 66.6387 49.8714 66.5976 54.5182C66.5976 57.8491 65.6542 58.7127 62.2906 58.7538C58.2708 58.7538 54.2099 58.7538 50.19 58.7538C49.5337 58.7538 48.8364 58.7538 48.016 58.7538C48.016 60.2753 48.016 61.5913 48.016 63.0306C50.3541 63.7708 53.8817 62.0436 54.9482 66.2381C48.2211 66.2381 41.7401 66.2381 35.2181 66.2381C35.4232 64.4287 36.0385 63.5651 37.5972 63.3595C38.9508 63.195 40.3044 63.3184 41.8632 63.3184C41.8632 61.7558 41.8632 60.4398 41.8632 58.8361C41.2069 58.7949 40.4685 58.7538 39.7712 58.7538C35.6693 58.7538 31.5674 58.7538 27.4655 58.7538C24.348 58.7538 23.3636 57.808 23.3226 54.7649C23.2815 49.9536 23.3226 45.1834 23.3226 40.3721C23.3226 39.8375 23.4046 39.3029 23.4456 38.5216C24.4301 38.6038 25.3325 38.7272 26.44 38.8506C26.44 41.4413 26.44 43.9086 26.44 46.3349C26.44 47.6508 26.399 48.9256 26.481 50.2415C26.5631 51.8453 27.1783 52.421 28.7371 52.5855C29.0652 52.6266 29.4344 52.5855 29.7625 52.5855C39.8122 52.5855 49.8619 52.5855 59.9115 52.5855C62.9469 52.5855 63.3982 52.1331 63.3982 49.1723C63.4392 45.718 63.4392 42.3049 63.4392 38.8094Z" fill="#1483F8"/>
<path d="M31.5264 39.1328C36.4897 39.1328 41.2479 39.1328 46.2522 39.1328C46.2522 42.0114 46.3753 44.89 46.1702 47.6863C46.1291 48.3854 44.8165 49.4545 44.0372 49.4957C40.7146 49.7013 37.3511 49.6602 34.0285 49.5779C32.6339 49.5368 31.6494 48.591 31.6084 47.2339C31.4033 44.561 31.5264 41.888 31.5264 39.1328Z" fill="#1483F8"/>
<path d="M50.0669 39.0938C52.9793 39.0938 55.6045 39.0938 58.4348 39.0938C58.4348 41.9312 58.5989 44.6453 58.3938 47.3182C58.2297 49.2099 56.7941 49.7445 53.2254 49.58C51.2975 49.4977 50.19 48.7575 50.108 47.0715C49.9849 44.5219 50.0669 41.9312 50.0669 39.0938Z" fill="#1483F8"/>
</svg>
