<svg width="53" height="42" viewBox="0 0 53 42" fill="none" xmlns="http://www.w3.org/2000/svg">
<path fill-rule="evenodd" clip-rule="evenodd" d="M9.2242 22.7375L6.79672 17.3971L4.32879 22.7375H3.35779L0.161621 15.7383H1.41581L3.84329 21.0788L6.31122 15.7383H7.28222L9.7097 21.0788L12.1776 15.7383H13.4723L10.2357 22.7375H9.2242ZM20.2288 22.7375V15.7383H21.5639V22.7375H20.2288ZM37.6257 22.7375L30.1815 17.3162V22.7375H29.0486V15.7383H30.1815L37.1402 20.9169V15.7383H38.2731V22.7375H37.6257ZM45.6769 22.7375V15.7383H52.8784V16.7902H47.012V18.5299H52.5952V19.5818H47.012V21.7261H52.8784V22.778H45.6769V22.7375Z" fill="white"/>
<path fill-rule="evenodd" clip-rule="evenodd" d="M3.84329 33.7389V27.7511H0.161621V26.6992H8.7387V27.7511H5.13795V33.7389H3.84329ZM17.9227 33.7389L16.2639 30.6236H12.5822V33.7389H11.2471V26.6992H17.1944C17.599 26.6992 17.9227 26.7396 18.2059 26.8206C18.4891 26.9015 18.7318 27.0229 18.8937 27.1847C19.0555 27.3465 19.2173 27.5084 19.2578 27.7107C19.3387 27.913 19.3792 28.1557 19.3792 28.3984V28.8839C19.3792 29.3289 19.2578 29.7335 18.9746 30.0168C18.6914 30.3 18.2463 30.5023 17.6395 30.5427L19.2983 33.6984H17.9227V33.7389ZM18.125 28.3984C18.125 27.9534 17.8417 27.7511 17.2349 27.7511H12.5822V29.5717H17.2349C17.8013 29.5717 18.125 29.3694 18.125 28.9244V28.3984ZM24.315 33.7389C23.9104 33.7389 23.5868 33.6984 23.3036 33.6175C23.0204 33.5366 22.7776 33.4152 22.6158 33.2534C22.454 33.0916 22.2921 32.9297 22.2517 32.7274C22.1708 32.5251 22.1303 32.2824 22.1303 32.0397V26.6992H23.4654V32.0397C23.4654 32.4847 23.7486 32.687 24.3555 32.687H28.725C29.2914 32.687 29.615 32.4847 29.615 32.0397V26.6992H30.9502V32.0397C30.9502 32.2824 30.9097 32.5251 30.8692 32.7274C30.8288 32.9297 30.7074 33.0916 30.586 33.2534C30.4646 33.4152 30.2624 33.5366 29.9791 33.6175C29.7364 33.6984 29.4128 33.7389 29.0082 33.7389H24.315ZM33.8631 33.7389V32.687H39.9723C40.5387 32.687 40.8624 32.4847 40.8624 32.0397V31.1496C40.8624 30.7046 40.5792 30.5022 39.9723 30.5022H35.8456C35.441 30.5022 35.1173 30.4618 34.8341 30.3809C34.5509 30.3 34.3082 30.1786 34.1463 30.0168C33.9845 29.8549 33.8227 29.6931 33.7822 29.4908C33.7013 29.2885 33.6608 29.0458 33.6608 28.803V28.3984C33.6608 28.1557 33.7013 27.913 33.7822 27.7107C33.8631 27.5084 33.9845 27.3465 34.1463 27.1847C34.3082 27.0229 34.5509 26.9015 34.8341 26.8206C35.1173 26.7396 35.441 26.6992 35.8456 26.6992H41.7929V27.7511H35.8456C35.2791 27.7511 34.9555 27.9534 34.9555 28.3984V28.8435C34.9555 29.2885 35.2387 29.4908 35.8456 29.4908H39.9723C40.3769 29.4908 40.7005 29.5313 40.9837 29.6122C41.2669 29.6931 41.5097 29.8145 41.6715 29.9763C41.8334 30.1381 41.9952 30.2999 42.0357 30.5022C42.1166 30.7045 42.157 30.9473 42.157 31.19V32.0397C42.157 32.2824 42.1166 32.5251 42.0357 32.7274C41.9547 32.9297 41.8334 33.0916 41.6715 33.2534C41.5097 33.4152 41.2669 33.5366 40.9837 33.6175C40.7005 33.6984 40.3769 33.7389 39.9723 33.7389H33.8631ZM47.9425 33.7389V27.7511H44.2608V26.6992H52.8379V27.7511H49.2372V33.7389H47.9425Z" fill="white"/>
<path fill-rule="evenodd" clip-rule="evenodd" d="M26.7023 0.0808963L53 12.2588H0C8.81985 8.17249 17.6802 4.08626 26.5 0L26.7023 0.0808963ZM53 41.1054H0V40.1344H53V41.1054ZM53 38.3946H0V37.9092H53V38.3946ZM9.02213 10.3977H10.1145L26.5 2.83206L42.8855 10.3977H43.9779L26.5 2.30609L9.02213 10.3977ZM38.4351 6.59463L26.5 1.09235L4.45038 11.2878H48.5092L38.4351 6.59463Z" fill="white"/>
</svg>
