<svg width="323" height="224" viewBox="0 0 323 224" fill="none" xmlns="http://www.w3.org/2000/svg">
<g filter="url(#filter0_d)">
<path d="M262.5 80C262.5 66.1929 251.307 55 237.5 55H85C71.1929 55 60 66.1929 60 80V117.564C60 131.372 71.1929 142.565 85 142.565H228.609C240.058 142.565 250.959 147.471 258.551 156.042L260.751 158.526C261.362 159.215 262.5 158.783 262.5 157.863V80Z" fill="#002954"/>
</g>
<path fill-rule="evenodd" clip-rule="evenodd" d="M89.2242 97.7375L86.7967 92.3971L84.3288 97.7375H83.3578L80.1616 90.7383H81.4158L83.8433 96.0788L86.3112 90.7383H87.2822L89.7097 96.0788L92.1776 90.7383H93.4723L90.2357 97.7375H89.2242ZM100.229 97.7375V90.7383H101.564V97.7375H100.229ZM117.626 97.7375L110.181 92.3162V97.7375H109.049V90.7383H110.181L117.14 95.9169V90.7383H118.273V97.7375H117.626ZM125.677 97.7375V90.7383H132.878V91.7902H127.012V93.5299H132.595V94.5818H127.012V96.7261H132.878V97.778H125.677V97.7375Z" fill="white"/>
<path fill-rule="evenodd" clip-rule="evenodd" d="M83.8433 108.739V102.751H80.1616V101.699H88.7387V102.751H85.138V108.739H83.8433ZM97.9227 108.739L96.2639 105.624H92.5822V108.739H91.2471V101.699H97.1944C97.599 101.699 97.9227 101.74 98.2059 101.821C98.4891 101.901 98.7318 102.023 98.8937 102.185C99.0555 102.347 99.2173 102.508 99.2578 102.711C99.3387 102.913 99.3792 103.156 99.3792 103.398V103.884C99.3792 104.329 99.2578 104.734 98.9746 105.017C98.6914 105.3 98.2463 105.502 97.6395 105.543L99.2983 108.698H97.9227V108.739ZM98.125 103.398C98.125 102.953 97.8417 102.751 97.2349 102.751H92.5822V104.572H97.2349C97.8013 104.572 98.125 104.369 98.125 103.924V103.398ZM104.315 108.739C103.91 108.739 103.587 108.698 103.304 108.618C103.02 108.537 102.778 108.415 102.616 108.253C102.454 108.092 102.292 107.93 102.252 107.727C102.171 107.525 102.13 107.282 102.13 107.04V101.699H103.465V107.04C103.465 107.485 103.749 107.687 104.356 107.687H108.725C109.291 107.687 109.615 107.485 109.615 107.04V101.699H110.95V107.04C110.95 107.282 110.91 107.525 110.869 107.727C110.829 107.93 110.707 108.092 110.586 108.253C110.465 108.415 110.262 108.537 109.979 108.618C109.736 108.698 109.413 108.739 109.008 108.739H104.315ZM113.863 108.739V107.687H119.972C120.539 107.687 120.862 107.485 120.862 107.04V106.15C120.862 105.705 120.579 105.502 119.972 105.502H115.846C115.441 105.502 115.117 105.462 114.834 105.381C114.551 105.3 114.308 105.179 114.146 105.017C113.985 104.855 113.823 104.693 113.782 104.491C113.701 104.288 113.661 104.046 113.661 103.803V103.398C113.661 103.156 113.701 102.913 113.782 102.711C113.863 102.508 113.985 102.347 114.146 102.185C114.308 102.023 114.551 101.901 114.834 101.821C115.117 101.74 115.441 101.699 115.846 101.699H121.793V102.751H115.846C115.279 102.751 114.956 102.953 114.956 103.398V103.843C114.956 104.288 115.239 104.491 115.846 104.491H119.972C120.377 104.491 120.701 104.531 120.984 104.612C121.267 104.693 121.51 104.814 121.672 104.976C121.833 105.138 121.995 105.3 122.036 105.502C122.117 105.705 122.157 105.947 122.157 106.19V107.04C122.157 107.282 122.117 107.525 122.036 107.727C121.955 107.93 121.833 108.092 121.672 108.253C121.51 108.415 121.267 108.537 120.984 108.618C120.701 108.698 120.377 108.739 119.972 108.739H113.863ZM127.943 108.739V102.751H124.261V101.699H132.838V102.751H129.237V108.739H127.943Z" fill="white"/>
<path fill-rule="evenodd" clip-rule="evenodd" d="M106.702 75.0809L133 87.2588H80C88.8198 83.1725 97.6802 79.0863 106.5 75L106.702 75.0809ZM133 116.105H80V115.134H133V116.105ZM133 113.395H80V112.909H133V113.395ZM89.0221 85.3977H90.1145L106.5 77.8321L122.885 85.3977H123.978L106.5 77.3061L89.0221 85.3977ZM118.435 81.5946L106.5 76.0923L84.4504 86.2878H128.509L118.435 81.5946Z" fill="white"/>
<path d="M150.18 82L148.2 75H149.41L150.88 80.47L152.47 75H153.53L155.11 80.47L156.58 75H157.79L155.81 82H154.48L153 76.89L151.51 82H150.18ZM161.985 77H163.065V82H161.985V81.28C161.578 81.8467 160.995 82.13 160.235 82.13C159.548 82.13 158.961 81.8767 158.475 81.37C157.988 80.8567 157.745 80.2333 157.745 79.5C157.745 78.76 157.988 78.1367 158.475 77.63C158.961 77.1233 159.548 76.87 160.235 76.87C160.995 76.87 161.578 77.15 161.985 77.71V77ZM159.275 80.65C159.575 80.95 159.951 81.1 160.405 81.1C160.858 81.1 161.235 80.95 161.535 80.65C161.835 80.3433 161.985 79.96 161.985 79.5C161.985 79.04 161.835 78.66 161.535 78.36C161.235 78.0533 160.858 77.9 160.405 77.9C159.951 77.9 159.575 78.0533 159.275 78.36C158.975 78.66 158.825 79.04 158.825 79.5C158.825 79.96 158.975 80.3433 159.275 80.65ZM165.403 77.84C165.677 77.22 166.19 76.91 166.943 76.91V78.08C166.53 78.0533 166.17 78.1533 165.863 78.38C165.557 78.6 165.403 78.9667 165.403 79.48V82H164.323V77H165.403V77.84ZM168.357 79.96C168.437 80.34 168.62 80.6333 168.907 80.84C169.194 81.04 169.544 81.14 169.957 81.14C170.53 81.14 170.96 80.9333 171.247 80.52L172.137 81.04C171.644 81.7667 170.914 82.13 169.947 82.13C169.134 82.13 168.477 81.8833 167.977 81.39C167.477 80.89 167.227 80.26 167.227 79.5C167.227 78.7533 167.474 78.13 167.967 77.63C168.46 77.1233 169.094 76.87 169.867 76.87C170.6 76.87 171.2 77.1267 171.667 77.64C172.14 78.1533 172.377 78.7767 172.377 79.51C172.377 79.6233 172.364 79.7733 172.337 79.96H168.357ZM168.347 79.08H171.287C171.214 78.6733 171.044 78.3667 170.777 78.16C170.517 77.9533 170.21 77.85 169.857 77.85C169.457 77.85 169.124 77.96 168.857 78.18C168.59 78.4 168.42 78.7 168.347 79.08ZM175.957 76.87C176.531 76.87 176.994 77.0533 177.347 77.42C177.701 77.7867 177.877 78.29 177.877 78.93V82H176.797V79.04C176.797 78.6667 176.697 78.38 176.497 78.18C176.297 77.98 176.024 77.88 175.677 77.88C175.297 77.88 174.991 78 174.757 78.24C174.524 78.4733 174.407 78.8333 174.407 79.32V82H173.327V75H174.407V77.64C174.734 77.1267 175.251 76.87 175.957 76.87ZM181.4 82.13C180.667 82.13 180.043 81.8767 179.53 81.37C179.017 80.8633 178.76 80.24 178.76 79.5C178.76 78.76 179.017 78.1367 179.53 77.63C180.043 77.1233 180.667 76.87 181.4 76.87C182.14 76.87 182.763 77.1233 183.27 77.63C183.783 78.1367 184.04 78.76 184.04 79.5C184.04 80.24 183.783 80.8633 183.27 81.37C182.763 81.8767 182.14 82.13 181.4 82.13ZM180.29 80.63C180.59 80.93 180.96 81.08 181.4 81.08C181.84 81.08 182.21 80.93 182.51 80.63C182.81 80.33 182.96 79.9533 182.96 79.5C182.96 79.0467 182.81 78.67 182.51 78.37C182.21 78.07 181.84 77.92 181.4 77.92C180.96 77.92 180.59 78.07 180.29 78.37C179.99 78.67 179.84 79.0467 179.84 79.5C179.84 79.9533 179.99 80.33 180.29 80.63ZM188.387 77H189.467V82H188.387V81.36C188.06 81.8733 187.543 82.13 186.837 82.13C186.263 82.13 185.8 81.9467 185.447 81.58C185.093 81.2133 184.917 80.71 184.917 80.07V77H185.997V79.96C185.997 80.3333 186.097 80.62 186.297 80.82C186.497 81.02 186.77 81.12 187.117 81.12C187.497 81.12 187.803 81.0033 188.037 80.77C188.27 80.53 188.387 80.1667 188.387 79.68V77ZM191.67 78.38C191.67 78.5467 191.76 78.68 191.94 78.78C192.127 78.8733 192.35 78.9567 192.61 79.03C192.877 79.0967 193.144 79.1767 193.41 79.27C193.677 79.3633 193.9 79.5233 194.08 79.75C194.267 79.97 194.36 80.25 194.36 80.59C194.36 81.07 194.174 81.4467 193.8 81.72C193.434 81.9933 192.97 82.13 192.41 82.13C191.917 82.13 191.494 82.0267 191.14 81.82C190.787 81.6133 190.53 81.3267 190.37 80.96L191.3 80.42C191.474 80.9 191.844 81.14 192.41 81.14C192.977 81.14 193.26 80.9533 193.26 80.58C193.26 80.42 193.167 80.29 192.98 80.19C192.8 80.09 192.577 80.0067 192.31 79.94C192.05 79.8667 191.787 79.7833 191.52 79.69C191.254 79.5967 191.027 79.4433 190.84 79.23C190.66 79.01 190.57 78.7333 190.57 78.4C190.57 77.94 190.744 77.57 191.09 77.29C191.444 77.01 191.88 76.87 192.4 76.87C192.814 76.87 193.18 76.9633 193.5 77.15C193.827 77.33 194.077 77.5833 194.25 77.91L193.34 78.42C193.167 78.04 192.854 77.85 192.4 77.85C192.194 77.85 192.02 77.8967 191.88 77.99C191.74 78.0767 191.67 78.2067 191.67 78.38ZM196.033 79.96C196.113 80.34 196.296 80.6333 196.583 80.84C196.869 81.04 197.219 81.14 197.633 81.14C198.206 81.14 198.636 80.9333 198.923 80.52L199.813 81.04C199.319 81.7667 198.589 82.13 197.623 82.13C196.809 82.13 196.153 81.8833 195.653 81.39C195.153 80.89 194.903 80.26 194.903 79.5C194.903 78.7533 195.149 78.13 195.643 77.63C196.136 77.1233 196.769 76.87 197.543 76.87C198.276 76.87 198.876 77.1267 199.343 77.64C199.816 78.1533 200.053 78.7767 200.053 79.51C200.053 79.6233 200.039 79.7733 200.013 79.96H196.033ZM196.023 79.08H198.963C198.889 78.6733 198.719 78.3667 198.453 78.16C198.193 77.9533 197.886 77.85 197.533 77.85C197.133 77.85 196.799 77.96 196.533 78.18C196.266 78.4 196.096 78.7 196.023 79.08ZM202.183 78.15C202.036 78.2967 201.86 78.37 201.653 78.37C201.446 78.37 201.27 78.2967 201.123 78.15C200.976 78.0033 200.903 77.8267 200.903 77.62C200.903 77.4067 200.973 77.23 201.113 77.09C201.26 76.9433 201.44 76.87 201.653 76.87C201.86 76.87 202.036 76.9433 202.183 77.09C202.33 77.2367 202.403 77.4133 202.403 77.62C202.403 77.8267 202.33 78.0033 202.183 78.15ZM202.183 81.9C202.036 82.0467 201.86 82.12 201.653 82.12C201.446 82.12 201.27 82.0467 201.123 81.9C200.976 81.7533 200.903 81.5767 200.903 81.37C200.903 81.1633 200.973 80.9867 201.113 80.84C201.26 80.6933 201.44 80.62 201.653 80.62C201.86 80.62 202.036 80.6933 202.183 80.84C202.33 80.9867 202.403 81.1633 202.403 81.37C202.403 81.5767 202.33 81.7533 202.183 81.9Z" fill="#F9FCFF"/>
<path d="M156.334 91.4H158.8V104H156.334V98.78H151.654V104H149.17V91.4H151.654V96.404H156.334V91.4ZM168.701 102.884C167.777 103.796 166.649 104.252 165.317 104.252C163.985 104.252 162.857 103.796 161.933 102.884C161.021 101.96 160.565 100.832 160.565 99.5C160.565 98.168 161.021 97.046 161.933 96.134C162.857 95.21 163.985 94.748 165.317 94.748C166.649 94.748 167.777 95.21 168.701 96.134C169.625 97.046 170.087 98.168 170.087 99.5C170.087 100.832 169.625 101.96 168.701 102.884ZM163.571 101.282C164.039 101.75 164.621 101.984 165.317 101.984C166.013 101.984 166.595 101.75 167.063 101.282C167.531 100.814 167.765 100.22 167.765 99.5C167.765 98.78 167.531 98.186 167.063 97.718C166.595 97.25 166.013 97.016 165.317 97.016C164.621 97.016 164.039 97.25 163.571 97.718C163.115 98.186 162.887 98.78 162.887 99.5C162.887 100.22 163.115 100.814 163.571 101.282ZM176.724 94.748C177.708 94.748 178.518 95.078 179.154 95.738C179.802 96.398 180.126 97.31 180.126 98.474V104H177.804V98.762C177.804 98.162 177.642 97.706 177.318 97.394C176.994 97.07 176.562 96.908 176.022 96.908C175.422 96.908 174.942 97.094 174.582 97.466C174.222 97.838 174.042 98.396 174.042 99.14V104H171.72V95H174.042V96.008C174.606 95.168 175.5 94.748 176.724 94.748ZM189.003 95H191.271V103.568C191.271 104.96 190.809 106.022 189.885 106.754C188.973 107.486 187.869 107.852 186.573 107.852C185.601 107.852 184.743 107.666 183.999 107.294C183.267 106.922 182.703 106.376 182.307 105.656L184.287 104.522C184.743 105.362 185.529 105.782 186.645 105.782C187.377 105.782 187.953 105.59 188.373 105.206C188.793 104.822 189.003 104.276 189.003 103.568V102.596C188.319 103.508 187.359 103.964 186.123 103.964C184.851 103.964 183.783 103.52 182.919 102.632C182.067 101.732 181.641 100.64 181.641 99.356C181.641 98.084 182.073 96.998 182.937 96.098C183.801 95.198 184.863 94.748 186.123 94.748C187.359 94.748 188.319 95.204 189.003 96.116V95ZM184.665 101.138C185.145 101.594 185.751 101.822 186.483 101.822C187.215 101.822 187.815 101.594 188.283 101.138C188.763 100.67 189.003 100.076 189.003 99.356C189.003 98.648 188.763 98.066 188.283 97.61C187.815 97.142 187.215 96.908 186.483 96.908C185.751 96.908 185.145 97.142 184.665 97.61C184.197 98.066 183.963 98.648 183.963 99.356C183.963 100.076 184.197 100.67 184.665 101.138ZM207.83 104H204.968L200.468 98.096V104H197.984V91.4H200.468V96.962L204.788 91.4H207.65L202.988 97.52L207.83 104ZM215.81 102.884C214.886 103.796 213.758 104.252 212.426 104.252C211.094 104.252 209.966 103.796 209.042 102.884C208.13 101.96 207.674 100.832 207.674 99.5C207.674 98.168 208.13 97.046 209.042 96.134C209.966 95.21 211.094 94.748 212.426 94.748C213.758 94.748 214.886 95.21 215.81 96.134C216.734 97.046 217.196 98.168 217.196 99.5C217.196 100.832 216.734 101.96 215.81 102.884ZM210.68 101.282C211.148 101.75 211.73 101.984 212.426 101.984C213.122 101.984 213.704 101.75 214.172 101.282C214.64 100.814 214.874 100.22 214.874 99.5C214.874 98.78 214.64 98.186 214.172 97.718C213.704 97.25 213.122 97.016 212.426 97.016C211.73 97.016 211.148 97.25 210.68 97.718C210.224 98.186 209.996 98.78 209.996 99.5C209.996 100.22 210.224 100.814 210.68 101.282ZM223.834 94.748C224.818 94.748 225.628 95.078 226.264 95.738C226.912 96.398 227.236 97.31 227.236 98.474V104H224.914V98.762C224.914 98.162 224.752 97.706 224.428 97.394C224.104 97.07 223.672 96.908 223.132 96.908C222.532 96.908 222.052 97.094 221.692 97.466C221.332 97.838 221.152 98.396 221.152 99.14V104H218.83V95H221.152V96.008C221.716 95.168 222.61 94.748 223.834 94.748ZM236.112 95H238.38V103.568C238.38 104.96 237.918 106.022 236.994 106.754C236.082 107.486 234.978 107.852 233.682 107.852C232.71 107.852 231.852 107.666 231.108 107.294C230.376 106.922 229.812 106.376 229.416 105.656L231.396 104.522C231.852 105.362 232.638 105.782 233.754 105.782C234.486 105.782 235.062 105.59 235.482 105.206C235.902 104.822 236.112 104.276 236.112 103.568V102.596C235.428 103.508 234.468 103.964 233.232 103.964C231.96 103.964 230.892 103.52 230.028 102.632C229.176 101.732 228.75 100.64 228.75 99.356C228.75 98.084 229.182 96.998 230.046 96.098C230.91 95.198 231.972 94.748 233.232 94.748C234.468 94.748 235.428 95.204 236.112 96.116V95ZM231.774 101.138C232.254 101.594 232.86 101.822 233.592 101.822C234.324 101.822 234.924 101.594 235.392 101.138C235.872 100.67 236.112 100.076 236.112 99.356C236.112 98.648 235.872 98.066 235.392 97.61C234.924 97.142 234.324 96.908 233.592 96.908C232.86 96.908 232.254 97.142 231.774 97.61C231.306 98.066 231.072 98.648 231.072 99.356C231.072 100.076 231.306 100.67 231.774 101.138ZM243.546 101.516L242.196 106.52H240.306L241.026 101.516H243.546ZM153.472 124.252C152.224 124.252 151.174 123.976 150.322 123.424C149.47 122.86 148.87 122.098 148.522 121.138L150.646 119.896C151.138 121.18 152.104 121.822 153.544 121.822C154.24 121.822 154.75 121.696 155.074 121.444C155.398 121.192 155.56 120.874 155.56 120.49C155.56 120.046 155.362 119.704 154.966 119.464C154.57 119.212 153.862 118.942 152.842 118.654C152.278 118.486 151.798 118.318 151.402 118.15C151.018 117.982 150.628 117.76 150.232 117.484C149.848 117.196 149.554 116.836 149.35 116.404C149.146 115.972 149.044 115.468 149.044 114.892C149.044 113.752 149.446 112.846 150.25 112.174C151.066 111.49 152.044 111.148 153.184 111.148C154.204 111.148 155.098 111.4 155.866 111.904C156.646 112.396 157.252 113.086 157.684 113.974L155.596 115.18C155.092 114.1 154.288 113.56 153.184 113.56C152.668 113.56 152.26 113.68 151.96 113.92C151.672 114.148 151.528 114.448 151.528 114.82C151.528 115.216 151.69 115.54 152.014 115.792C152.35 116.032 152.986 116.296 153.922 116.584C154.306 116.704 154.594 116.8 154.786 116.872C154.99 116.932 155.26 117.034 155.596 117.178C155.944 117.31 156.208 117.436 156.388 117.556C156.58 117.676 156.796 117.838 157.036 118.042C157.276 118.246 157.456 118.456 157.576 118.672C157.708 118.888 157.816 119.152 157.9 119.464C157.996 119.764 158.044 120.094 158.044 120.454C158.044 121.618 157.618 122.542 156.766 123.226C155.926 123.91 154.828 124.252 153.472 124.252ZM167.571 124L166.815 121.732H161.793L161.037 124H158.355L162.765 111.4H165.843L170.271 124H167.571ZM162.585 119.41H166.041L164.313 114.262L162.585 119.41ZM178.406 124L175.868 119.626H173.978V124H171.494V111.4H176.534C177.698 111.4 178.688 111.808 179.504 112.624C180.32 113.44 180.728 114.424 180.728 115.576C180.728 116.356 180.506 117.082 180.062 117.754C179.618 118.414 179.03 118.912 178.298 119.248L181.088 124H178.406ZM173.978 113.722V117.448H176.534C177.002 117.448 177.404 117.268 177.74 116.908C178.076 116.536 178.244 116.092 178.244 115.576C178.244 115.06 178.076 114.622 177.74 114.262C177.404 113.902 177.002 113.722 176.534 113.722H173.978ZM193.027 124.252C191.131 124.252 189.565 123.622 188.329 122.362C187.093 121.102 186.475 119.548 186.475 117.7C186.475 115.84 187.093 114.286 188.329 113.038C189.565 111.778 191.131 111.148 193.027 111.148C194.167 111.148 195.217 111.418 196.177 111.958C197.149 112.486 197.905 113.206 198.445 114.118L196.303 115.36C195.991 114.796 195.547 114.358 194.971 114.046C194.395 113.722 193.747 113.56 193.027 113.56C191.803 113.56 190.813 113.944 190.057 114.712C189.313 115.48 188.941 116.476 188.941 117.7C188.941 118.912 189.313 119.902 190.057 120.67C190.813 121.438 191.803 121.822 193.027 121.822C193.747 121.822 194.395 121.666 194.971 121.354C195.559 121.03 196.003 120.592 196.303 120.04L198.445 121.282C197.905 122.194 197.155 122.92 196.195 123.46C195.235 123.988 194.179 124.252 193.027 124.252ZM205.007 114.748C205.991 114.748 206.801 115.078 207.437 115.738C208.085 116.398 208.409 117.31 208.409 118.474V124H206.087V118.762C206.087 118.162 205.925 117.706 205.601 117.394C205.277 117.07 204.845 116.908 204.305 116.908C203.705 116.908 203.225 117.094 202.865 117.466C202.505 117.838 202.325 118.396 202.325 119.14V124H200.003V111.4H202.325V116.008C202.889 115.168 203.783 114.748 205.007 114.748ZM211.544 113.92C211.16 113.92 210.824 113.782 210.536 113.506C210.26 113.218 210.122 112.882 210.122 112.498C210.122 112.114 210.26 111.778 210.536 111.49C210.824 111.202 211.16 111.058 211.544 111.058C211.94 111.058 212.276 111.202 212.552 111.49C212.84 111.778 212.984 112.114 212.984 112.498C212.984 112.882 212.84 113.218 212.552 113.506C212.276 113.782 211.94 113.92 211.544 113.92ZM210.392 124V115H212.714V124H210.392ZM219.843 114.748C220.827 114.748 221.637 115.078 222.273 115.738C222.921 116.398 223.245 117.31 223.245 118.474V124H220.923V118.762C220.923 118.162 220.761 117.706 220.437 117.394C220.113 117.07 219.681 116.908 219.141 116.908C218.541 116.908 218.061 117.094 217.701 117.466C217.341 117.838 217.161 118.396 217.161 119.14V124H214.839V115H217.161V116.008C217.725 115.168 218.619 114.748 219.843 114.748ZM232.068 115H234.39V124H232.068V122.938C231.372 123.814 230.394 124.252 229.134 124.252C227.934 124.252 226.902 123.796 226.038 122.884C225.186 121.96 224.76 120.832 224.76 119.5C224.76 118.168 225.186 117.046 226.038 116.134C226.902 115.21 227.934 114.748 229.134 114.748C230.394 114.748 231.372 115.186 232.068 116.062V115ZM227.784 121.336C228.252 121.804 228.846 122.038 229.566 122.038C230.286 122.038 230.88 121.804 231.348 121.336C231.828 120.856 232.068 120.244 232.068 119.5C232.068 118.756 231.828 118.15 231.348 117.682C230.88 117.202 230.286 116.962 229.566 116.962C228.846 116.962 228.252 117.202 227.784 117.682C227.316 118.15 227.082 118.756 227.082 119.5C227.082 120.244 227.316 120.856 227.784 121.336Z" fill="#F9FCFF"/>
<defs>
<filter id="filter0_d" x="0" y="0" width="322.5" height="223.863" filterUnits="userSpaceOnUse" color-interpolation-filters="sRGB">
<feFlood flood-opacity="0" result="BackgroundImageFix"/>
<feColorMatrix in="SourceAlpha" type="matrix" values="0 0 0 0 0 0 0 0 0 0 0 0 0 0 0 0 0 0 127 0" result="hardAlpha"/>
<feOffset dy="5"/>
<feGaussianBlur stdDeviation="30"/>
<feComposite in2="hardAlpha" operator="out"/>
<feColorMatrix type="matrix" values="0 0 0 0 0.027451 0 0 0 0 0.137255 0 0 0 0 0.160784 0 0 0 0.08 0"/>
<feBlend mode="normal" in2="BackgroundImageFix" result="effect1_dropShadow"/>
<feBlend mode="normal" in="SourceGraphic" in2="effect1_dropShadow" result="shape"/>
</filter>
</defs>
</svg>
