<svg width="328" height="225" viewBox="0 0 328 225" fill="none" xmlns="http://www.w3.org/2000/svg">
<g filter="url(#filter0_d)">
<path d="M267.5 134.5C267.5 148.307 256.307 159.5 242.5 159.5H85C71.1929 159.5 60 148.307 60 134.5V96.9355C60 83.1284 71.1929 71.9355 85 71.9355H233.28C244.92 71.9355 255.982 66.8652 263.581 58.0477L265.742 55.5395C266.348 54.8372 267.5 55.2652 267.5 56.1923V134.5Z" fill="#002954"/>
</g>
<path fill-rule="evenodd" clip-rule="evenodd" d="M91.2242 113.738L88.7967 108.397L86.3288 113.738H85.3578L82.1616 106.738H83.4158L85.8433 112.079L88.3112 106.738H89.2822L91.7097 112.079L94.1776 106.738H95.4723L92.2357 113.738H91.2242ZM102.229 113.738V106.738H103.564V113.738H102.229ZM119.626 113.738L112.181 108.316V113.738H111.049V106.738H112.181L119.14 111.917V106.738H120.273V113.738H119.626ZM127.677 113.738V106.738H134.878V107.79H129.012V109.53H134.595V110.582H129.012V112.726H134.878V113.778H127.677V113.738Z" fill="white"/>
<path fill-rule="evenodd" clip-rule="evenodd" d="M85.8433 124.739V118.751H82.1616V117.699H90.7387V118.751H87.138V124.739H85.8433ZM99.9227 124.739L98.2639 121.624H94.5822V124.739H93.2471V117.699H99.1944C99.599 117.699 99.9227 117.74 100.206 117.821C100.489 117.901 100.732 118.023 100.894 118.185C101.056 118.347 101.217 118.508 101.258 118.711C101.339 118.913 101.379 119.156 101.379 119.398V119.884C101.379 120.329 101.258 120.734 100.975 121.017C100.691 121.3 100.246 121.502 99.6395 121.543L101.298 124.698H99.9227V124.739ZM100.125 119.398C100.125 118.953 99.8417 118.751 99.2349 118.751H94.5822V120.572H99.2349C99.8013 120.572 100.125 120.369 100.125 119.924V119.398ZM106.315 124.739C105.91 124.739 105.587 124.698 105.304 124.618C105.02 124.537 104.778 124.415 104.616 124.253C104.454 124.092 104.292 123.93 104.252 123.727C104.171 123.525 104.13 123.282 104.13 123.04V117.699H105.465V123.04C105.465 123.485 105.749 123.687 106.356 123.687H110.725C111.291 123.687 111.615 123.485 111.615 123.04V117.699H112.95V123.04C112.95 123.282 112.91 123.525 112.869 123.727C112.829 123.93 112.707 124.092 112.586 124.253C112.465 124.415 112.262 124.537 111.979 124.618C111.736 124.698 111.413 124.739 111.008 124.739H106.315ZM115.863 124.739V123.687H121.972C122.539 123.687 122.862 123.485 122.862 123.04V122.15C122.862 121.705 122.579 121.502 121.972 121.502H117.846C117.441 121.502 117.117 121.462 116.834 121.381C116.551 121.3 116.308 121.179 116.146 121.017C115.985 120.855 115.823 120.693 115.782 120.491C115.701 120.288 115.661 120.046 115.661 119.803V119.398C115.661 119.156 115.701 118.913 115.782 118.711C115.863 118.508 115.985 118.347 116.146 118.185C116.308 118.023 116.551 117.901 116.834 117.821C117.117 117.74 117.441 117.699 117.846 117.699H123.793V118.751H117.846C117.279 118.751 116.956 118.953 116.956 119.398V119.843C116.956 120.288 117.239 120.491 117.846 120.491H121.972C122.377 120.491 122.701 120.531 122.984 120.612C123.267 120.693 123.51 120.814 123.672 120.976C123.833 121.138 123.995 121.3 124.036 121.502C124.117 121.705 124.157 121.947 124.157 122.19V123.04C124.157 123.282 124.117 123.525 124.036 123.727C123.955 123.93 123.833 124.092 123.672 124.253C123.51 124.415 123.267 124.537 122.984 124.618C122.701 124.698 122.377 124.739 121.972 124.739H115.863ZM129.943 124.739V118.751H126.261V117.699H134.838V118.751H131.237V124.739H129.943Z" fill="white"/>
<path fill-rule="evenodd" clip-rule="evenodd" d="M108.702 91.0809L135 103.259H82C90.8198 99.1725 99.6802 95.0863 108.5 91L108.702 91.0809ZM135 132.105H82V131.134H135V132.105ZM135 129.395H82V128.909H135V129.395ZM91.0221 101.398H92.1145L108.5 93.8321L124.885 101.398H125.978L108.5 93.3061L91.0221 101.398ZM120.435 97.5946L108.5 92.0923L86.4504 102.288H130.509L120.435 97.5946Z" fill="white"/>
<path d="M152.18 98L150.2 91H151.41L152.88 96.47L154.47 91H155.53L157.11 96.47L158.58 91H159.79L157.81 98H156.48L155 92.89L153.51 98H152.18ZM163.985 93H165.065V98H163.985V97.28C163.578 97.8467 162.995 98.13 162.235 98.13C161.548 98.13 160.961 97.8767 160.475 97.37C159.988 96.8567 159.745 96.2333 159.745 95.5C159.745 94.76 159.988 94.1367 160.475 93.63C160.961 93.1233 161.548 92.87 162.235 92.87C162.995 92.87 163.578 93.15 163.985 93.71V93ZM161.275 96.65C161.575 96.95 161.951 97.1 162.405 97.1C162.858 97.1 163.235 96.95 163.535 96.65C163.835 96.3433 163.985 95.96 163.985 95.5C163.985 95.04 163.835 94.66 163.535 94.36C163.235 94.0533 162.858 93.9 162.405 93.9C161.951 93.9 161.575 94.0533 161.275 94.36C160.975 94.66 160.825 95.04 160.825 95.5C160.825 95.96 160.975 96.3433 161.275 96.65ZM167.403 93.84C167.677 93.22 168.19 92.91 168.943 92.91V94.08C168.53 94.0533 168.17 94.1533 167.863 94.38C167.557 94.6 167.403 94.9667 167.403 95.48V98H166.323V93H167.403V93.84ZM170.357 95.96C170.437 96.34 170.62 96.6333 170.907 96.84C171.194 97.04 171.544 97.14 171.957 97.14C172.53 97.14 172.96 96.9333 173.247 96.52L174.137 97.04C173.644 97.7667 172.914 98.13 171.947 98.13C171.134 98.13 170.477 97.8833 169.977 97.39C169.477 96.89 169.227 96.26 169.227 95.5C169.227 94.7533 169.474 94.13 169.967 93.63C170.46 93.1233 171.094 92.87 171.867 92.87C172.6 92.87 173.2 93.1267 173.667 93.64C174.14 94.1533 174.377 94.7767 174.377 95.51C174.377 95.6233 174.364 95.7733 174.337 95.96H170.357ZM170.347 95.08H173.287C173.214 94.6733 173.044 94.3667 172.777 94.16C172.517 93.9533 172.21 93.85 171.857 93.85C171.457 93.85 171.124 93.96 170.857 94.18C170.59 94.4 170.42 94.7 170.347 95.08ZM177.957 92.87C178.531 92.87 178.994 93.0533 179.347 93.42C179.701 93.7867 179.877 94.29 179.877 94.93V98H178.797V95.04C178.797 94.6667 178.697 94.38 178.497 94.18C178.297 93.98 178.024 93.88 177.677 93.88C177.297 93.88 176.991 94 176.757 94.24C176.524 94.4733 176.407 94.8333 176.407 95.32V98H175.327V91H176.407V93.64C176.734 93.1267 177.251 92.87 177.957 92.87ZM183.4 98.13C182.667 98.13 182.043 97.8767 181.53 97.37C181.017 96.8633 180.76 96.24 180.76 95.5C180.76 94.76 181.017 94.1367 181.53 93.63C182.043 93.1233 182.667 92.87 183.4 92.87C184.14 92.87 184.763 93.1233 185.27 93.63C185.783 94.1367 186.04 94.76 186.04 95.5C186.04 96.24 185.783 96.8633 185.27 97.37C184.763 97.8767 184.14 98.13 183.4 98.13ZM182.29 96.63C182.59 96.93 182.96 97.08 183.4 97.08C183.84 97.08 184.21 96.93 184.51 96.63C184.81 96.33 184.96 95.9533 184.96 95.5C184.96 95.0467 184.81 94.67 184.51 94.37C184.21 94.07 183.84 93.92 183.4 93.92C182.96 93.92 182.59 94.07 182.29 94.37C181.99 94.67 181.84 95.0467 181.84 95.5C181.84 95.9533 181.99 96.33 182.29 96.63ZM190.387 93H191.467V98H190.387V97.36C190.06 97.8733 189.543 98.13 188.837 98.13C188.263 98.13 187.8 97.9467 187.447 97.58C187.093 97.2133 186.917 96.71 186.917 96.07V93H187.997V95.96C187.997 96.3333 188.097 96.62 188.297 96.82C188.497 97.02 188.77 97.12 189.117 97.12C189.497 97.12 189.803 97.0033 190.037 96.77C190.27 96.53 190.387 96.1667 190.387 95.68V93ZM193.67 94.38C193.67 94.5467 193.76 94.68 193.94 94.78C194.127 94.8733 194.35 94.9567 194.61 95.03C194.877 95.0967 195.144 95.1767 195.41 95.27C195.677 95.3633 195.9 95.5233 196.08 95.75C196.267 95.97 196.36 96.25 196.36 96.59C196.36 97.07 196.174 97.4467 195.8 97.72C195.434 97.9933 194.97 98.13 194.41 98.13C193.917 98.13 193.494 98.0267 193.14 97.82C192.787 97.6133 192.53 97.3267 192.37 96.96L193.3 96.42C193.474 96.9 193.844 97.14 194.41 97.14C194.977 97.14 195.26 96.9533 195.26 96.58C195.26 96.42 195.167 96.29 194.98 96.19C194.8 96.09 194.577 96.0067 194.31 95.94C194.05 95.8667 193.787 95.7833 193.52 95.69C193.254 95.5967 193.027 95.4433 192.84 95.23C192.66 95.01 192.57 94.7333 192.57 94.4C192.57 93.94 192.744 93.57 193.09 93.29C193.444 93.01 193.88 92.87 194.4 92.87C194.814 92.87 195.18 92.9633 195.5 93.15C195.827 93.33 196.077 93.5833 196.25 93.91L195.34 94.42C195.167 94.04 194.854 93.85 194.4 93.85C194.194 93.85 194.02 93.8967 193.88 93.99C193.74 94.0767 193.67 94.2067 193.67 94.38ZM198.033 95.96C198.113 96.34 198.296 96.6333 198.583 96.84C198.869 97.04 199.219 97.14 199.633 97.14C200.206 97.14 200.636 96.9333 200.923 96.52L201.813 97.04C201.319 97.7667 200.589 98.13 199.623 98.13C198.809 98.13 198.153 97.8833 197.653 97.39C197.153 96.89 196.903 96.26 196.903 95.5C196.903 94.7533 197.149 94.13 197.643 93.63C198.136 93.1233 198.769 92.87 199.543 92.87C200.276 92.87 200.876 93.1267 201.343 93.64C201.816 94.1533 202.053 94.7767 202.053 95.51C202.053 95.6233 202.039 95.7733 202.013 95.96H198.033ZM198.023 95.08H200.963C200.889 94.6733 200.719 94.3667 200.453 94.16C200.193 93.9533 199.886 93.85 199.533 93.85C199.133 93.85 198.799 93.96 198.533 94.18C198.266 94.4 198.096 94.7 198.023 95.08ZM204.183 94.15C204.036 94.2967 203.86 94.37 203.653 94.37C203.446 94.37 203.27 94.2967 203.123 94.15C202.976 94.0033 202.903 93.8267 202.903 93.62C202.903 93.4067 202.973 93.23 203.113 93.09C203.26 92.9433 203.44 92.87 203.653 92.87C203.86 92.87 204.036 92.9433 204.183 93.09C204.33 93.2367 204.403 93.4133 204.403 93.62C204.403 93.8267 204.33 94.0033 204.183 94.15ZM204.183 97.9C204.036 98.0467 203.86 98.12 203.653 98.12C203.446 98.12 203.27 98.0467 203.123 97.9C202.976 97.7533 202.903 97.5767 202.903 97.37C202.903 97.1633 202.973 96.9867 203.113 96.84C203.26 96.6933 203.44 96.62 203.653 96.62C203.86 96.62 204.036 96.6933 204.183 96.84C204.33 96.9867 204.403 97.1633 204.403 97.37C204.403 97.5767 204.33 97.7533 204.183 97.9Z" fill="#F9FCFF"/>
<path d="M158.784 113.466C159.888 114.102 160.44 115.062 160.44 116.346C160.44 117.414 160.062 118.29 159.306 118.974C158.55 119.658 157.62 120 156.516 120H151.17V107.4H156.138C157.218 107.4 158.124 107.736 158.856 108.408C159.6 109.068 159.972 109.914 159.972 110.946C159.972 111.99 159.576 112.83 158.784 113.466ZM156.138 109.722H153.654V112.494H156.138C156.522 112.494 156.84 112.362 157.092 112.098C157.356 111.834 157.488 111.504 157.488 111.108C157.488 110.712 157.362 110.382 157.11 110.118C156.858 109.854 156.534 109.722 156.138 109.722ZM156.516 117.678C156.936 117.678 157.284 117.54 157.56 117.264C157.836 116.976 157.974 116.616 157.974 116.184C157.974 115.764 157.836 115.416 157.56 115.14C157.284 114.852 156.936 114.708 156.516 114.708H153.654V117.678H156.516ZM169.769 118.884C168.845 119.796 167.717 120.252 166.385 120.252C165.053 120.252 163.925 119.796 163.001 118.884C162.089 117.96 161.633 116.832 161.633 115.5C161.633 114.168 162.089 113.046 163.001 112.134C163.925 111.21 165.053 110.748 166.385 110.748C167.717 110.748 168.845 111.21 169.769 112.134C170.693 113.046 171.155 114.168 171.155 115.5C171.155 116.832 170.693 117.96 169.769 118.884ZM164.639 117.282C165.107 117.75 165.689 117.984 166.385 117.984C167.081 117.984 167.663 117.75 168.131 117.282C168.599 116.814 168.833 116.22 168.833 115.5C168.833 114.78 168.599 114.186 168.131 113.718C167.663 113.25 167.081 113.016 166.385 113.016C165.689 113.016 165.107 113.25 164.639 113.718C164.183 114.186 163.955 114.78 163.955 115.5C163.955 116.22 164.183 116.814 164.639 117.282ZM175.111 112.548C175.327 111.972 175.681 111.54 176.173 111.252C176.677 110.964 177.235 110.82 177.847 110.82V113.412C177.139 113.328 176.503 113.472 175.939 113.844C175.387 114.216 175.111 114.834 175.111 115.698V120H172.789V111H175.111V112.548ZM185.693 107.4H188.015V120H185.693V118.938C185.009 119.814 184.037 120.252 182.777 120.252C181.565 120.252 180.527 119.796 179.663 118.884C178.811 117.96 178.385 116.832 178.385 115.5C178.385 114.168 178.811 113.046 179.663 112.134C180.527 111.21 181.565 110.748 182.777 110.748C184.037 110.748 185.009 111.186 185.693 112.062V107.4ZM181.409 117.336C181.889 117.804 182.489 118.038 183.209 118.038C183.929 118.038 184.523 117.804 184.991 117.336C185.459 116.856 185.693 116.244 185.693 115.5C185.693 114.756 185.459 114.15 184.991 113.682C184.523 113.202 183.929 112.962 183.209 112.962C182.489 112.962 181.889 113.202 181.409 113.682C180.941 114.15 180.707 114.756 180.707 115.5C180.707 116.244 180.941 116.856 181.409 117.336ZM192.1 116.454C192.412 117.582 193.258 118.146 194.638 118.146C195.526 118.146 196.198 117.846 196.654 117.246L198.526 118.326C197.638 119.61 196.33 120.252 194.602 120.252C193.114 120.252 191.92 119.802 191.02 118.902C190.12 118.002 189.67 116.868 189.67 115.5C189.67 114.144 190.114 113.016 191.002 112.116C191.89 111.204 193.03 110.748 194.422 110.748C195.742 110.748 196.828 111.204 197.68 112.116C198.544 113.028 198.976 114.156 198.976 115.5C198.976 115.8 198.946 116.118 198.886 116.454H192.1ZM192.064 114.654H196.654C196.522 114.042 196.246 113.586 195.826 113.286C195.418 112.986 194.95 112.836 194.422 112.836C193.798 112.836 193.282 112.998 192.874 113.322C192.466 113.634 192.196 114.078 192.064 114.654ZM207.367 111H209.689V120H207.367V118.938C206.671 119.814 205.693 120.252 204.433 120.252C203.233 120.252 202.201 119.796 201.337 118.884C200.485 117.96 200.059 116.832 200.059 115.5C200.059 114.168 200.485 113.046 201.337 112.134C202.201 111.21 203.233 110.748 204.433 110.748C205.693 110.748 206.671 111.186 207.367 112.062V111ZM203.083 117.336C203.551 117.804 204.145 118.038 204.865 118.038C205.585 118.038 206.179 117.804 206.647 117.336C207.127 116.856 207.367 116.244 207.367 115.5C207.367 114.756 207.127 114.15 206.647 113.682C206.179 113.202 205.585 112.962 204.865 112.962C204.145 112.962 203.551 113.202 203.083 113.682C202.615 114.15 202.381 114.756 202.381 115.5C202.381 116.244 202.615 116.856 203.083 117.336ZM217.734 111H220.056V120H217.734V118.992C217.17 119.832 216.276 120.252 215.052 120.252C214.068 120.252 213.252 119.922 212.604 119.262C211.968 118.602 211.65 117.69 211.65 116.526V111H213.972V116.238C213.972 116.838 214.134 117.3 214.458 117.624C214.782 117.936 215.214 118.092 215.754 118.092C216.354 118.092 216.834 117.906 217.194 117.534C217.554 117.162 217.734 116.604 217.734 115.86V111ZM230.481 120H227.799L225.855 117.264L223.893 120H221.211L224.505 115.41L221.355 111H224.037L225.855 113.538L227.673 111H230.337L227.187 115.392L230.481 120ZM234.7 117.516L233.35 122.52H231.46L232.18 117.516H234.7ZM158.694 129.776H153.654V132.764H158.55V135.14H153.654V140H151.17V127.4H158.694V129.776ZM162.718 132.548C162.934 131.972 163.288 131.54 163.78 131.252C164.284 130.964 164.842 130.82 165.454 130.82V133.412C164.746 133.328 164.11 133.472 163.546 133.844C162.994 134.216 162.718 134.834 162.718 135.698V140H160.396V131H162.718V132.548ZM173.318 131H175.64V140H173.318V138.938C172.622 139.814 171.644 140.252 170.384 140.252C169.184 140.252 168.152 139.796 167.288 138.884C166.436 137.96 166.01 136.832 166.01 135.5C166.01 134.168 166.436 133.046 167.288 132.134C168.152 131.21 169.184 130.748 170.384 130.748C171.644 130.748 172.622 131.186 173.318 132.062V131ZM169.034 137.336C169.502 137.804 170.096 138.038 170.816 138.038C171.536 138.038 172.13 137.804 172.598 137.336C173.078 136.856 173.318 136.244 173.318 135.5C173.318 134.756 173.078 134.15 172.598 133.682C172.13 133.202 171.536 132.962 170.816 132.962C170.096 132.962 169.502 133.202 169.034 133.682C168.566 134.15 168.332 134.756 168.332 135.5C168.332 136.244 168.566 136.856 169.034 137.336ZM182.75 130.748C183.734 130.748 184.544 131.078 185.18 131.738C185.828 132.398 186.152 133.31 186.152 134.474V140H183.83V134.762C183.83 134.162 183.668 133.706 183.344 133.394C183.02 133.07 182.588 132.908 182.048 132.908C181.448 132.908 180.968 133.094 180.608 133.466C180.248 133.838 180.068 134.396 180.068 135.14V140H177.746V131H180.068V132.008C180.632 131.168 181.526 130.748 182.75 130.748ZM192.418 140.252C191.062 140.252 189.928 139.796 189.016 138.884C188.116 137.972 187.666 136.844 187.666 135.5C187.666 134.156 188.116 133.028 189.016 132.116C189.928 131.204 191.062 130.748 192.418 130.748C193.294 130.748 194.092 130.958 194.812 131.378C195.532 131.798 196.078 132.362 196.45 133.07L194.452 134.24C194.272 133.868 193.996 133.574 193.624 133.358C193.264 133.142 192.856 133.034 192.4 133.034C191.704 133.034 191.128 133.268 190.672 133.736C190.216 134.192 189.988 134.78 189.988 135.5C189.988 136.208 190.216 136.796 190.672 137.264C191.128 137.72 191.704 137.948 192.4 137.948C192.868 137.948 193.282 137.846 193.642 137.642C194.014 137.426 194.29 137.132 194.47 136.76L196.486 137.912C196.09 138.62 195.532 139.19 194.812 139.622C194.092 140.042 193.294 140.252 192.418 140.252ZM199.536 136.454C199.848 137.582 200.694 138.146 202.074 138.146C202.962 138.146 203.634 137.846 204.09 137.246L205.962 138.326C205.074 139.61 203.766 140.252 202.038 140.252C200.55 140.252 199.356 139.802 198.456 138.902C197.556 138.002 197.106 136.868 197.106 135.5C197.106 134.144 197.55 133.016 198.438 132.116C199.326 131.204 200.466 130.748 201.858 130.748C203.178 130.748 204.264 131.204 205.116 132.116C205.98 133.028 206.412 134.156 206.412 135.5C206.412 135.8 206.382 136.118 206.322 136.454H199.536ZM199.5 134.654H204.09C203.958 134.042 203.682 133.586 203.262 133.286C202.854 132.986 202.386 132.836 201.858 132.836C201.234 132.836 200.718 132.998 200.31 133.322C199.902 133.634 199.632 134.078 199.5 134.654Z" fill="#F9FCFF"/>
<defs>
<filter id="filter0_d" x="0" y="0.191406" width="327.5" height="224.309" filterUnits="userSpaceOnUse" color-interpolation-filters="sRGB">
<feFlood flood-opacity="0" result="BackgroundImageFix"/>
<feColorMatrix in="SourceAlpha" type="matrix" values="0 0 0 0 0 0 0 0 0 0 0 0 0 0 0 0 0 0 127 0" result="hardAlpha"/>
<feOffset dy="5"/>
<feGaussianBlur stdDeviation="30"/>
<feComposite in2="hardAlpha" operator="out"/>
<feColorMatrix type="matrix" values="0 0 0 0 0.027451 0 0 0 0 0.137255 0 0 0 0 0.160784 0 0 0 0.08 0"/>
<feBlend mode="normal" in2="BackgroundImageFix" result="effect1_dropShadow"/>
<feBlend mode="normal" in="SourceGraphic" in2="effect1_dropShadow" result="shape"/>
</filter>
</defs>
</svg>
