<svg width="71" height="55" viewBox="0 0 71 55" fill="none" xmlns="http://www.w3.org/2000/svg">
<path fill-rule="evenodd" clip-rule="evenodd" d="M12.3425 30.4199L9.09448 23.2742L5.79233 30.4199H4.49311L0.216553 21.0547H1.89469L5.14272 28.2004L8.44487 21.0547H9.7441L12.9921 28.2004L16.2943 21.0547H18.0266L13.6959 30.4199H12.3425ZM27.0669 30.4199V21.0547H28.8533V30.4199H27.0669ZM50.3445 30.4199L40.3838 23.1659V30.4199H38.8681V21.0547H40.3838L49.6949 27.9839V21.0547H51.2106V30.4199H50.3445ZM61.1171 30.4199V21.0547H70.7529V22.4622H62.9035V24.7899H70.374V26.1974H62.9035V29.0665H70.7529V30.474H61.1171V30.4199Z" fill="white"/>
<path fill-rule="evenodd" clip-rule="evenodd" d="M5.14272 45.1419V37.1301H0.216553V35.7227H11.6929V37.1301H6.87501V45.1419H5.14272ZM23.9813 45.1419L21.7618 40.9736H16.8356V45.1419H15.0492V35.7227H23.0069C23.5482 35.7227 23.9813 35.7768 24.3602 35.885C24.7392 35.9933 25.064 36.1557 25.2805 36.3722C25.497 36.5888 25.7136 36.8053 25.7677 37.076C25.876 37.3467 25.9301 37.6714 25.9301 37.9962V38.6458C25.9301 39.2413 25.7677 39.7827 25.3888 40.1616C25.0098 40.5405 24.4143 40.8112 23.6023 40.8654L25.8218 45.0878H23.9813V45.1419ZM24.2519 37.9962C24.2519 37.4008 23.873 37.1301 23.061 37.1301H16.8356V39.5661H23.061C23.8189 39.5661 24.2519 39.2955 24.2519 38.7V37.9962ZM32.5344 45.1419C31.9931 45.1419 31.56 45.0878 31.1811 44.9795C30.8021 44.8713 30.4774 44.7088 30.2608 44.4923C30.0443 44.2758 29.8277 44.0592 29.7736 43.7885C29.6653 43.5179 29.6112 43.1931 29.6112 42.8683V35.7227H31.3976V42.8683C31.3976 43.4638 31.7766 43.7344 32.5886 43.7344H38.435C39.1929 43.7344 39.626 43.4638 39.626 42.8683V35.7227H41.4124V42.8683C41.4124 43.1931 41.3582 43.5179 41.3041 43.7885C41.25 44.0592 41.0876 44.2758 40.9252 44.4923C40.7628 44.7088 40.4921 44.8713 40.1132 44.9795C39.7883 45.0878 39.3553 45.1419 38.814 45.1419H32.5344ZM45.31 45.1419V43.7344H53.4842C54.2421 43.7344 54.6752 43.4638 54.6752 42.8683V41.6774C54.6752 41.0819 54.2962 40.8112 53.4842 40.8112H47.9626C47.4212 40.8112 46.9881 40.7571 46.6092 40.6488C46.2303 40.5405 45.9055 40.3781 45.689 40.1616C45.4724 39.9451 45.2559 39.7285 45.2017 39.4578C45.0935 39.1872 45.0393 38.8624 45.0393 38.5376V37.9962C45.0393 37.6714 45.0935 37.3467 45.2017 37.076C45.31 36.8053 45.4724 36.5888 45.689 36.3722C45.9055 36.1557 46.2303 35.9933 46.6092 35.885C46.9881 35.7768 47.4212 35.7227 47.9626 35.7227H55.9202V37.1301H47.9626C47.2047 37.1301 46.7716 37.4008 46.7716 37.9962V38.5917C46.7716 39.1872 47.1505 39.4578 47.9626 39.4578H53.4842C54.0256 39.4578 54.4586 39.512 54.8376 39.6203C55.2165 39.7285 55.5413 39.8909 55.7578 40.1075C55.9744 40.324 56.1909 40.5405 56.2451 40.8112C56.3533 41.0818 56.4075 41.4067 56.4075 41.7315V42.8683C56.4075 43.1931 56.3533 43.5179 56.2451 43.7885C56.1368 44.0592 55.9744 44.2758 55.7578 44.4923C55.5413 44.7088 55.2165 44.8713 54.8376 44.9795C54.4586 45.0878 54.0256 45.1419 53.4842 45.1419H45.31ZM64.1486 45.1419V37.1301H59.2224V35.7227H70.6988V37.1301H65.8809V45.1419H64.1486Z" fill="white"/>
<path fill-rule="evenodd" clip-rule="evenodd" d="M35.7283 0.108241L70.9153 16.4025H0C11.8012 10.935 23.6565 5.46752 35.4577 0L35.7283 0.108241ZM70.9153 55H0V53.7008H70.9153V55ZM70.9153 51.373H0V50.7234H70.9153V51.373ZM12.0718 13.9124H13.5335L35.4577 3.78937L57.3819 13.9124H58.8435L35.4577 3.0856L12.0718 13.9124ZM51.4271 8.82378L35.4577 1.46159L5.95472 15.1033H64.9065L51.4271 8.82378Z" fill="white"/>
</svg>
