<svg width="359" height="224" viewBox="0 0 359 224" fill="none" xmlns="http://www.w3.org/2000/svg">
<g filter="url(#filter0_d)">
<path d="M60 80C60 66.1929 71.1929 55 85 55H274C287.807 55 299 66.1929 299 80V117.564C299 131.372 287.807 142.565 274 142.565H93.8914C82.4417 142.565 71.5408 147.471 63.9489 156.042L61.7486 158.526C61.1383 159.215 60 158.783 60 157.863V80Z" fill="#002954"/>
</g>
<path fill-rule="evenodd" clip-rule="evenodd" d="M89.2242 99.7375L86.7967 94.3971L84.3288 99.7375H83.3578L80.1616 92.7383H81.4158L83.8433 98.0788L86.3112 92.7383H87.2822L89.7097 98.0788L92.1776 92.7383H93.4723L90.2357 99.7375H89.2242ZM100.229 99.7375V92.7383H101.564V99.7375H100.229ZM117.626 99.7375L110.181 94.3162V99.7375H109.049V92.7383H110.181L117.14 97.9169V92.7383H118.273V99.7375H117.626ZM125.677 99.7375V92.7383H132.878V93.7902H127.012V95.5299H132.595V96.5818H127.012V98.7261H132.878V99.778H125.677V99.7375Z" fill="white"/>
<path fill-rule="evenodd" clip-rule="evenodd" d="M83.8433 110.739V104.751H80.1616V103.699H88.7387V104.751H85.138V110.739H83.8433ZM97.9227 110.739L96.2639 107.624H92.5822V110.739H91.2471V103.699H97.1944C97.599 103.699 97.9227 103.74 98.2059 103.821C98.4891 103.901 98.7318 104.023 98.8937 104.185C99.0555 104.347 99.2173 104.508 99.2578 104.711C99.3387 104.913 99.3792 105.156 99.3792 105.398V105.884C99.3792 106.329 99.2578 106.734 98.9746 107.017C98.6914 107.3 98.2463 107.502 97.6395 107.543L99.2983 110.698H97.9227V110.739ZM98.125 105.398C98.125 104.953 97.8417 104.751 97.2349 104.751H92.5822V106.572H97.2349C97.8013 106.572 98.125 106.369 98.125 105.924V105.398ZM104.315 110.739C103.91 110.739 103.587 110.698 103.304 110.618C103.02 110.537 102.778 110.415 102.616 110.253C102.454 110.092 102.292 109.93 102.252 109.727C102.171 109.525 102.13 109.282 102.13 109.04V103.699H103.465V109.04C103.465 109.485 103.749 109.687 104.356 109.687H108.725C109.291 109.687 109.615 109.485 109.615 109.04V103.699H110.95V109.04C110.95 109.282 110.91 109.525 110.869 109.727C110.829 109.93 110.707 110.092 110.586 110.253C110.465 110.415 110.262 110.537 109.979 110.618C109.736 110.698 109.413 110.739 109.008 110.739H104.315ZM113.863 110.739V109.687H119.972C120.539 109.687 120.862 109.485 120.862 109.04V108.15C120.862 107.705 120.579 107.502 119.972 107.502H115.846C115.441 107.502 115.117 107.462 114.834 107.381C114.551 107.3 114.308 107.179 114.146 107.017C113.985 106.855 113.823 106.693 113.782 106.491C113.701 106.288 113.661 106.046 113.661 105.803V105.398C113.661 105.156 113.701 104.913 113.782 104.711C113.863 104.508 113.985 104.347 114.146 104.185C114.308 104.023 114.551 103.901 114.834 103.821C115.117 103.74 115.441 103.699 115.846 103.699H121.793V104.751H115.846C115.279 104.751 114.956 104.953 114.956 105.398V105.843C114.956 106.288 115.239 106.491 115.846 106.491H119.972C120.377 106.491 120.701 106.531 120.984 106.612C121.267 106.693 121.51 106.814 121.672 106.976C121.833 107.138 121.995 107.3 122.036 107.502C122.117 107.705 122.157 107.947 122.157 108.19V109.04C122.157 109.282 122.117 109.525 122.036 109.727C121.955 109.93 121.833 110.092 121.672 110.253C121.51 110.415 121.267 110.537 120.984 110.618C120.701 110.698 120.377 110.739 119.972 110.739H113.863V110.739ZM127.943 110.739V104.751H124.261V103.699H132.838V104.751H129.237V110.739H127.943Z" fill="white"/>
<path fill-rule="evenodd" clip-rule="evenodd" d="M106.702 77.0809L133 89.2588H80C88.8198 85.1725 97.6802 81.0863 106.5 77L106.702 77.0809ZM133 118.105H80V117.134H133V118.105ZM133 115.395H80V114.909H133V115.395ZM89.0221 87.3977H90.1145L106.5 79.8321L122.885 87.3977H123.978L106.5 79.3061L89.0221 87.3977ZM118.435 83.5946L106.5 78.0923L84.4504 88.2878H128.509L118.435 83.5946Z" fill="white"/>
<path d="M150.18 84L148.2 77H149.41L150.88 82.47L152.47 77H153.53L155.11 82.47L156.58 77H157.79L155.81 84H154.48L153 78.89L151.51 84H150.18ZM161.985 79H163.065V84H161.985V83.28C161.578 83.8467 160.995 84.13 160.235 84.13C159.548 84.13 158.961 83.8767 158.475 83.37C157.988 82.8567 157.745 82.2333 157.745 81.5C157.745 80.76 157.988 80.1367 158.475 79.63C158.961 79.1233 159.548 78.87 160.235 78.87C160.995 78.87 161.578 79.15 161.985 79.71V79ZM159.275 82.65C159.575 82.95 159.951 83.1 160.405 83.1C160.858 83.1 161.235 82.95 161.535 82.65C161.835 82.3433 161.985 81.96 161.985 81.5C161.985 81.04 161.835 80.66 161.535 80.36C161.235 80.0533 160.858 79.9 160.405 79.9C159.951 79.9 159.575 80.0533 159.275 80.36C158.975 80.66 158.825 81.04 158.825 81.5C158.825 81.96 158.975 82.3433 159.275 82.65ZM165.403 79.84C165.677 79.22 166.19 78.91 166.943 78.91V80.08C166.53 80.0533 166.17 80.1533 165.863 80.38C165.557 80.6 165.403 80.9667 165.403 81.48V84H164.323V79H165.403V79.84ZM168.357 81.96C168.437 82.34 168.62 82.6333 168.907 82.84C169.194 83.04 169.544 83.14 169.957 83.14C170.53 83.14 170.96 82.9333 171.247 82.52L172.137 83.04C171.644 83.7667 170.914 84.13 169.947 84.13C169.134 84.13 168.477 83.8833 167.977 83.39C167.477 82.89 167.227 82.26 167.227 81.5C167.227 80.7533 167.474 80.13 167.967 79.63C168.46 79.1233 169.094 78.87 169.867 78.87C170.6 78.87 171.2 79.1267 171.667 79.64C172.14 80.1533 172.377 80.7767 172.377 81.51C172.377 81.6233 172.364 81.7733 172.337 81.96H168.357ZM168.347 81.08H171.287C171.214 80.6733 171.044 80.3667 170.777 80.16C170.517 79.9533 170.21 79.85 169.857 79.85C169.457 79.85 169.124 79.96 168.857 80.18C168.59 80.4 168.42 80.7 168.347 81.08ZM175.957 78.87C176.531 78.87 176.994 79.0533 177.347 79.42C177.701 79.7867 177.877 80.29 177.877 80.93V84H176.797V81.04C176.797 80.6667 176.697 80.38 176.497 80.18C176.297 79.98 176.024 79.88 175.677 79.88C175.297 79.88 174.991 80 174.757 80.24C174.524 80.4733 174.407 80.8333 174.407 81.32V84H173.327V77H174.407V79.64C174.734 79.1267 175.251 78.87 175.957 78.87ZM181.4 84.13C180.667 84.13 180.043 83.8767 179.53 83.37C179.017 82.8633 178.76 82.24 178.76 81.5C178.76 80.76 179.017 80.1367 179.53 79.63C180.043 79.1233 180.667 78.87 181.4 78.87C182.14 78.87 182.763 79.1233 183.27 79.63C183.783 80.1367 184.04 80.76 184.04 81.5C184.04 82.24 183.783 82.8633 183.27 83.37C182.763 83.8767 182.14 84.13 181.4 84.13ZM180.29 82.63C180.59 82.93 180.96 83.08 181.4 83.08C181.84 83.08 182.21 82.93 182.51 82.63C182.81 82.33 182.96 81.9533 182.96 81.5C182.96 81.0467 182.81 80.67 182.51 80.37C182.21 80.07 181.84 79.92 181.4 79.92C180.96 79.92 180.59 80.07 180.29 80.37C179.99 80.67 179.84 81.0467 179.84 81.5C179.84 81.9533 179.99 82.33 180.29 82.63ZM188.387 79H189.467V84H188.387V83.36C188.06 83.8733 187.543 84.13 186.837 84.13C186.263 84.13 185.8 83.9467 185.447 83.58C185.093 83.2133 184.917 82.71 184.917 82.07V79H185.997V81.96C185.997 82.3333 186.097 82.62 186.297 82.82C186.497 83.02 186.77 83.12 187.117 83.12C187.497 83.12 187.803 83.0033 188.037 82.77C188.27 82.53 188.387 82.1667 188.387 81.68V79ZM191.67 80.38C191.67 80.5467 191.76 80.68 191.94 80.78C192.127 80.8733 192.35 80.9567 192.61 81.03C192.877 81.0967 193.144 81.1767 193.41 81.27C193.677 81.3633 193.9 81.5233 194.08 81.75C194.267 81.97 194.36 82.25 194.36 82.59C194.36 83.07 194.174 83.4467 193.8 83.72C193.434 83.9933 192.97 84.13 192.41 84.13C191.917 84.13 191.494 84.0267 191.14 83.82C190.787 83.6133 190.53 83.3267 190.37 82.96L191.3 82.42C191.474 82.9 191.844 83.14 192.41 83.14C192.977 83.14 193.26 82.9533 193.26 82.58C193.26 82.42 193.167 82.29 192.98 82.19C192.8 82.09 192.577 82.0067 192.31 81.94C192.05 81.8667 191.787 81.7833 191.52 81.69C191.254 81.5967 191.027 81.4433 190.84 81.23C190.66 81.01 190.57 80.7333 190.57 80.4C190.57 79.94 190.744 79.57 191.09 79.29C191.444 79.01 191.88 78.87 192.4 78.87C192.814 78.87 193.18 78.9633 193.5 79.15C193.827 79.33 194.077 79.5833 194.25 79.91L193.34 80.42C193.167 80.04 192.854 79.85 192.4 79.85C192.194 79.85 192.02 79.8967 191.88 79.99C191.74 80.0767 191.67 80.2067 191.67 80.38ZM196.033 81.96C196.113 82.34 196.296 82.6333 196.583 82.84C196.869 83.04 197.219 83.14 197.633 83.14C198.206 83.14 198.636 82.9333 198.923 82.52L199.813 83.04C199.319 83.7667 198.589 84.13 197.623 84.13C196.809 84.13 196.153 83.8833 195.653 83.39C195.153 82.89 194.903 82.26 194.903 81.5C194.903 80.7533 195.149 80.13 195.643 79.63C196.136 79.1233 196.769 78.87 197.543 78.87C198.276 78.87 198.876 79.1267 199.343 79.64C199.816 80.1533 200.053 80.7767 200.053 81.51C200.053 81.6233 200.039 81.7733 200.013 81.96H196.033ZM196.023 81.08H198.963C198.889 80.6733 198.719 80.3667 198.453 80.16C198.193 79.9533 197.886 79.85 197.533 79.85C197.133 79.85 196.799 79.96 196.533 80.18C196.266 80.4 196.096 80.7 196.023 81.08ZM202.183 80.15C202.036 80.2967 201.86 80.37 201.653 80.37C201.446 80.37 201.27 80.2967 201.123 80.15C200.976 80.0033 200.903 79.8267 200.903 79.62C200.903 79.4067 200.973 79.23 201.113 79.09C201.26 78.9433 201.44 78.87 201.653 78.87C201.86 78.87 202.036 78.9433 202.183 79.09C202.33 79.2367 202.403 79.4133 202.403 79.62C202.403 79.8267 202.33 80.0033 202.183 80.15ZM202.183 83.9C202.036 84.0467 201.86 84.12 201.653 84.12C201.446 84.12 201.27 84.0467 201.123 83.9C200.976 83.7533 200.903 83.5767 200.903 83.37C200.903 83.1633 200.973 82.9867 201.113 82.84C201.26 82.6933 201.44 82.62 201.653 82.62C201.86 82.62 202.036 82.6933 202.183 82.84C202.33 82.9867 202.403 83.1633 202.403 83.37C202.403 83.5767 202.33 83.7533 202.183 83.9Z" fill="#F9FCFF"/>
<path d="M151.654 103.624H156.46V106H149.17V93.4H151.654V103.624ZM165.255 104.884C164.331 105.796 163.203 106.252 161.871 106.252C160.539 106.252 159.411 105.796 158.487 104.884C157.575 103.96 157.119 102.832 157.119 101.5C157.119 100.168 157.575 99.046 158.487 98.134C159.411 97.21 160.539 96.748 161.871 96.748C163.203 96.748 164.331 97.21 165.255 98.134C166.179 99.046 166.641 100.168 166.641 101.5C166.641 102.832 166.179 103.96 165.255 104.884ZM160.125 103.282C160.593 103.75 161.175 103.984 161.871 103.984C162.567 103.984 163.149 103.75 163.617 103.282C164.085 102.814 164.319 102.22 164.319 101.5C164.319 100.78 164.085 100.186 163.617 99.718C163.149 99.25 162.567 99.016 161.871 99.016C161.175 99.016 160.593 99.25 160.125 99.718C159.669 100.186 159.441 100.78 159.441 101.5C159.441 102.22 159.669 102.814 160.125 103.282ZM173.279 96.748C174.263 96.748 175.073 97.078 175.709 97.738C176.357 98.398 176.681 99.31 176.681 100.474V106H174.359V100.762C174.359 100.162 174.197 99.706 173.873 99.394C173.549 99.07 173.117 98.908 172.577 98.908C171.977 98.908 171.497 99.094 171.137 99.466C170.777 99.838 170.597 100.396 170.597 101.14V106H168.275V97H170.597V98.008C171.161 97.168 172.055 96.748 173.279 96.748ZM185.486 93.4H187.808V106H185.486V104.938C184.802 105.814 183.83 106.252 182.57 106.252C181.358 106.252 180.32 105.796 179.456 104.884C178.604 103.96 178.178 102.832 178.178 101.5C178.178 100.168 178.604 99.046 179.456 98.134C180.32 97.21 181.358 96.748 182.57 96.748C183.83 96.748 184.802 97.186 185.486 98.062V93.4ZM181.202 103.336C181.682 103.804 182.282 104.038 183.002 104.038C183.722 104.038 184.316 103.804 184.784 103.336C185.252 102.856 185.486 102.244 185.486 101.5C185.486 100.756 185.252 100.15 184.784 99.682C184.316 99.202 183.722 98.962 183.002 98.962C182.282 98.962 181.682 99.202 181.202 99.682C180.734 100.15 180.5 100.756 180.5 101.5C180.5 102.244 180.734 102.856 181.202 103.336ZM197.599 104.884C196.675 105.796 195.547 106.252 194.215 106.252C192.883 106.252 191.755 105.796 190.831 104.884C189.919 103.96 189.463 102.832 189.463 101.5C189.463 100.168 189.919 99.046 190.831 98.134C191.755 97.21 192.883 96.748 194.215 96.748C195.547 96.748 196.675 97.21 197.599 98.134C198.523 99.046 198.985 100.168 198.985 101.5C198.985 102.832 198.523 103.96 197.599 104.884ZM192.469 103.282C192.937 103.75 193.519 103.984 194.215 103.984C194.911 103.984 195.493 103.75 195.961 103.282C196.429 102.814 196.663 102.22 196.663 101.5C196.663 100.78 196.429 100.186 195.961 99.718C195.493 99.25 194.911 99.016 194.215 99.016C193.519 99.016 192.937 99.25 192.469 99.718C192.013 100.186 191.785 100.78 191.785 101.5C191.785 102.22 192.013 102.814 192.469 103.282ZM205.623 96.748C206.607 96.748 207.417 97.078 208.053 97.738C208.701 98.398 209.025 99.31 209.025 100.474V106H206.703V100.762C206.703 100.162 206.541 99.706 206.217 99.394C205.893 99.07 205.461 98.908 204.921 98.908C204.321 98.908 203.841 99.094 203.481 99.466C203.121 99.838 202.941 100.396 202.941 101.14V106H200.619V97H202.941V98.008C203.505 97.168 204.399 96.748 205.623 96.748ZM214.067 103.516L212.717 108.52H210.827L211.547 103.516H214.067ZM225.323 106.252C223.919 106.252 222.767 105.856 221.867 105.064C220.967 104.272 220.517 103.21 220.517 101.878V93.4H222.983V101.68C222.983 102.34 223.169 102.862 223.541 103.246C223.925 103.63 224.519 103.822 225.323 103.822C226.127 103.822 226.715 103.63 227.087 103.246C227.471 102.862 227.663 102.34 227.663 101.68V93.4H230.147V101.878C230.147 103.21 229.697 104.272 228.797 105.064C227.897 105.856 226.739 106.252 225.323 106.252ZM237.281 96.748C238.265 96.748 239.075 97.078 239.711 97.738C240.359 98.398 240.683 99.31 240.683 100.474V106H238.361V100.762C238.361 100.162 238.199 99.706 237.875 99.394C237.551 99.07 237.119 98.908 236.579 98.908C235.979 98.908 235.499 99.094 235.139 99.466C234.779 99.838 234.599 100.396 234.599 101.14V106H232.277V97H234.599V98.008C235.163 97.168 236.057 96.748 237.281 96.748ZM243.818 95.92C243.434 95.92 243.098 95.782 242.81 95.506C242.534 95.218 242.396 94.882 242.396 94.498C242.396 94.114 242.534 93.778 242.81 93.49C243.098 93.202 243.434 93.058 243.818 93.058C244.214 93.058 244.55 93.202 244.826 93.49C245.114 93.778 245.258 94.114 245.258 94.498C245.258 94.882 245.114 95.218 244.826 95.506C244.55 95.782 244.214 95.92 243.818 95.92ZM242.666 106V97H244.988V106H242.666ZM252.261 99.232H250.227V102.976C250.227 103.288 250.305 103.516 250.461 103.66C250.617 103.804 250.845 103.888 251.145 103.912C251.445 103.924 251.817 103.918 252.261 103.894V106C250.665 106.18 249.537 106.03 248.877 105.55C248.229 105.07 247.905 104.212 247.905 102.976V99.232H246.339V97H247.905V95.182L250.227 94.48V97H252.261V99.232ZM255.579 102.454C255.891 103.582 256.737 104.146 258.117 104.146C259.005 104.146 259.677 103.846 260.133 103.246L262.005 104.326C261.117 105.61 259.809 106.252 258.081 106.252C256.593 106.252 255.399 105.802 254.499 104.902C253.599 104.002 253.149 102.868 253.149 101.5C253.149 100.144 253.593 99.016 254.481 98.116C255.369 97.204 256.509 96.748 257.901 96.748C259.221 96.748 260.307 97.204 261.159 98.116C262.023 99.028 262.455 100.156 262.455 101.5C262.455 101.8 262.425 102.118 262.365 102.454H255.579ZM255.543 100.654H260.133C260.001 100.042 259.725 99.586 259.305 99.286C258.897 98.986 258.429 98.836 257.901 98.836C257.277 98.836 256.761 98.998 256.353 99.322C255.945 99.634 255.675 100.078 255.543 100.654ZM270.827 93.4H273.149V106H270.827V104.938C270.143 105.814 269.171 106.252 267.911 106.252C266.699 106.252 265.661 105.796 264.797 104.884C263.945 103.96 263.519 102.832 263.519 101.5C263.519 100.168 263.945 99.046 264.797 98.134C265.661 97.21 266.699 96.748 267.911 96.748C269.171 96.748 270.143 97.186 270.827 98.062V93.4ZM266.543 103.336C267.023 103.804 267.623 104.038 268.343 104.038C269.063 104.038 269.657 103.804 270.125 103.336C270.593 102.856 270.827 102.244 270.827 101.5C270.827 100.756 270.593 100.15 270.125 99.682C269.657 99.202 269.063 98.962 268.343 98.962C267.623 98.962 267.023 99.202 266.543 99.682C266.075 100.15 265.841 100.756 265.841 101.5C265.841 102.244 266.075 102.856 266.543 103.336ZM159.016 126H156.154L151.654 120.096V126H149.17V113.4H151.654V118.962L155.974 113.4H158.836L154.174 119.52L159.016 126ZM161.288 115.92C160.904 115.92 160.568 115.782 160.28 115.506C160.004 115.218 159.866 114.882 159.866 114.498C159.866 114.114 160.004 113.778 160.28 113.49C160.568 113.202 160.904 113.058 161.288 113.058C161.684 113.058 162.02 113.202 162.296 113.49C162.584 113.778 162.728 114.114 162.728 114.498C162.728 114.882 162.584 115.218 162.296 115.506C162.02 115.782 161.684 115.92 161.288 115.92ZM160.136 126V117H162.458V126H160.136ZM169.587 116.748C170.571 116.748 171.381 117.078 172.017 117.738C172.665 118.398 172.989 119.31 172.989 120.474V126H170.667V120.762C170.667 120.162 170.505 119.706 170.181 119.394C169.857 119.07 169.425 118.908 168.885 118.908C168.285 118.908 167.805 119.094 167.445 119.466C167.085 119.838 166.905 120.396 166.905 121.14V126H164.583V117H166.905V118.008C167.469 117.168 168.363 116.748 169.587 116.748ZM181.866 117H184.134V125.568C184.134 126.96 183.672 128.022 182.748 128.754C181.836 129.486 180.732 129.852 179.436 129.852C178.464 129.852 177.606 129.666 176.862 129.294C176.13 128.922 175.566 128.376 175.17 127.656L177.15 126.522C177.606 127.362 178.392 127.782 179.508 127.782C180.24 127.782 180.816 127.59 181.236 127.206C181.656 126.822 181.866 126.276 181.866 125.568V124.596C181.182 125.508 180.222 125.964 178.986 125.964C177.714 125.964 176.646 125.52 175.782 124.632C174.93 123.732 174.504 122.64 174.504 121.356C174.504 120.084 174.936 118.998 175.8 118.098C176.664 117.198 177.726 116.748 178.986 116.748C180.222 116.748 181.182 117.204 181.866 118.116V117ZM177.528 123.138C178.008 123.594 178.614 123.822 179.346 123.822C180.078 123.822 180.678 123.594 181.146 123.138C181.626 122.67 181.866 122.076 181.866 121.356C181.866 120.648 181.626 120.066 181.146 119.61C180.678 119.142 180.078 118.908 179.346 118.908C178.614 118.908 178.008 119.142 177.528 119.61C177.06 120.066 176.826 120.648 176.826 121.356C176.826 122.076 177.06 122.67 177.528 123.138ZM193.062 113.4H195.384V126H193.062V124.938C192.378 125.814 191.406 126.252 190.146 126.252C188.934 126.252 187.896 125.796 187.032 124.884C186.18 123.96 185.754 122.832 185.754 121.5C185.754 120.168 186.18 119.046 187.032 118.134C187.896 117.21 188.934 116.748 190.146 116.748C191.406 116.748 192.378 117.186 193.062 118.062V113.4ZM188.778 123.336C189.258 123.804 189.858 124.038 190.578 124.038C191.298 124.038 191.892 123.804 192.36 123.336C192.828 122.856 193.062 122.244 193.062 121.5C193.062 120.756 192.828 120.15 192.36 119.682C191.892 119.202 191.298 118.962 190.578 118.962C189.858 118.962 189.258 119.202 188.778 119.682C188.31 120.15 188.076 120.756 188.076 121.5C188.076 122.244 188.31 122.856 188.778 123.336ZM205.175 124.884C204.251 125.796 203.123 126.252 201.791 126.252C200.459 126.252 199.331 125.796 198.407 124.884C197.495 123.96 197.039 122.832 197.039 121.5C197.039 120.168 197.495 119.046 198.407 118.134C199.331 117.21 200.459 116.748 201.791 116.748C203.123 116.748 204.251 117.21 205.175 118.134C206.099 119.046 206.561 120.168 206.561 121.5C206.561 122.832 206.099 123.96 205.175 124.884ZM200.045 123.282C200.513 123.75 201.095 123.984 201.791 123.984C202.487 123.984 203.069 123.75 203.537 123.282C204.005 122.814 204.239 122.22 204.239 121.5C204.239 120.78 204.005 120.186 203.537 119.718C203.069 119.25 202.487 119.016 201.791 119.016C201.095 119.016 200.513 119.25 200.045 119.718C199.589 120.186 199.361 120.78 199.361 121.5C199.361 122.22 199.589 122.814 200.045 123.282ZM218.149 116.748C219.181 116.748 220.003 117.084 220.615 117.756C221.239 118.428 221.551 119.328 221.551 120.456V126H219.229V120.618C219.229 120.078 219.097 119.658 218.833 119.358C218.569 119.058 218.197 118.908 217.717 118.908C217.189 118.908 216.775 119.082 216.475 119.43C216.187 119.778 216.043 120.282 216.043 120.942V126H213.721V120.618C213.721 120.078 213.589 119.658 213.325 119.358C213.061 119.058 212.689 118.908 212.209 118.908C211.693 118.908 211.279 119.082 210.967 119.43C210.667 119.778 210.517 120.282 210.517 120.942V126H208.195V117H210.517V117.954C211.057 117.15 211.891 116.748 213.019 116.748C214.123 116.748 214.939 117.18 215.467 118.044C216.067 117.18 216.961 116.748 218.149 116.748Z" fill="#F9FCFF"/>
<defs>
<filter id="filter0_d" x="0" y="0" width="359" height="223.863" filterUnits="userSpaceOnUse" color-interpolation-filters="sRGB">
<feFlood flood-opacity="0" result="BackgroundImageFix"/>
<feColorMatrix in="SourceAlpha" type="matrix" values="0 0 0 0 0 0 0 0 0 0 0 0 0 0 0 0 0 0 127 0" result="hardAlpha"/>
<feOffset dy="5"/>
<feGaussianBlur stdDeviation="30"/>
<feComposite in2="hardAlpha" operator="out"/>
<feColorMatrix type="matrix" values="0 0 0 0 0.027451 0 0 0 0 0.137255 0 0 0 0 0.160784 0 0 0 0.08 0"/>
<feBlend mode="normal" in2="BackgroundImageFix" result="effect1_dropShadow"/>
<feBlend mode="normal" in="SourceGraphic" in2="effect1_dropShadow" result="shape"/>
</filter>
</defs>
</svg>
