<svg width="28" height="38" viewBox="0 0 28 38" fill="none" xmlns="http://www.w3.org/2000/svg">
<g clip-path="url(#clip0)">
<path d="M13.9999 22.3186C19.4221 22.3186 23.8177 18.0395 23.8177 12.7609C23.8177 7.48227 19.4221 3.20312 13.9999 3.20312C8.57771 3.20312 4.18213 7.48227 4.18213 12.7609C4.18213 18.0395 8.57771 22.3186 13.9999 22.3186Z" fill="white"/>
<path d="M23.1948 3.69546C18.1228 -1.24224 9.87704 -1.24224 4.805 3.69546C-0.267032 8.63315 -0.267032 16.6605 4.805 21.5982L13.9999 30.5496L23.1948 21.5982C28.2669 16.6605 28.2669 8.66202 23.1948 3.69546ZM13.9999 19.1149C10.2923 19.1149 7.29653 16.1985 7.29653 12.5891C7.29653 8.97965 10.2923 6.06324 13.9999 6.06324C17.7075 6.06324 20.7033 8.97965 20.7033 12.5891C20.7033 16.1985 17.7075 19.1149 13.9999 19.1149Z" fill="#1483F8"/>
</g>
<defs>
<clipPath id="clip0">
<rect width="28" height="38" fill="white"/>
</clipPath>
</defs>
</svg>
