<svg width="323" height="224" viewBox="0 0 323 224" fill="none" xmlns="http://www.w3.org/2000/svg">
<g filter="url(#filter0_d)">
<path d="M60 80C60 66.1929 71.1929 55 85 55H237.5C251.307 55 262.5 66.1929 262.5 80V117.564C262.5 131.372 251.307 142.565 237.5 142.565H93.8914C82.4417 142.565 71.5408 147.471 63.9489 156.042L61.7486 158.526C61.1383 159.215 60 158.783 60 157.863V80Z" fill="#002954"/>
</g>
<path fill-rule="evenodd" clip-rule="evenodd" d="M89.2242 96.7375L86.7967 91.3971L84.3288 96.7375H83.3578L80.1616 89.7383H81.4158L83.8433 95.0788L86.3112 89.7383H87.2822L89.7097 95.0788L92.1776 89.7383H93.4723L90.2357 96.7375H89.2242ZM100.229 96.7375V89.7383H101.564V96.7375H100.229ZM117.626 96.7375L110.181 91.3162V96.7375H109.049V89.7383H110.181L117.14 94.9169V89.7383H118.273V96.7375H117.626ZM125.677 96.7375V89.7383H132.878V90.7902H127.012V92.5299H132.595V93.5818H127.012V95.7261H132.878V96.778H125.677V96.7375Z" fill="white"/>
<path fill-rule="evenodd" clip-rule="evenodd" d="M83.8433 107.739V101.751H80.1616V100.699H88.7387V101.751H85.138V107.739H83.8433ZM97.9227 107.739L96.2639 104.624H92.5822V107.739H91.2471V100.699H97.1944C97.599 100.699 97.9227 100.74 98.2059 100.821C98.4891 100.901 98.7318 101.023 98.8937 101.185C99.0555 101.347 99.2173 101.508 99.2578 101.711C99.3387 101.913 99.3792 102.156 99.3792 102.398V102.884C99.3792 103.329 99.2578 103.734 98.9746 104.017C98.6914 104.3 98.2463 104.502 97.6395 104.543L99.2983 107.698H97.9227V107.739ZM98.125 102.398C98.125 101.953 97.8417 101.751 97.2349 101.751H92.5822V103.572H97.2349C97.8013 103.572 98.125 103.369 98.125 102.924V102.398ZM104.315 107.739C103.91 107.739 103.587 107.698 103.304 107.618C103.02 107.537 102.778 107.415 102.616 107.253C102.454 107.092 102.292 106.93 102.252 106.727C102.171 106.525 102.13 106.282 102.13 106.04V100.699H103.465V106.04C103.465 106.485 103.749 106.687 104.356 106.687H108.725C109.291 106.687 109.615 106.485 109.615 106.04V100.699H110.95V106.04C110.95 106.282 110.91 106.525 110.869 106.727C110.829 106.93 110.707 107.092 110.586 107.253C110.465 107.415 110.262 107.537 109.979 107.618C109.736 107.698 109.413 107.739 109.008 107.739H104.315ZM113.863 107.739V106.687H119.972C120.539 106.687 120.862 106.485 120.862 106.04V105.15C120.862 104.705 120.579 104.502 119.972 104.502H115.846C115.441 104.502 115.117 104.462 114.834 104.381C114.551 104.3 114.308 104.179 114.146 104.017C113.985 103.855 113.823 103.693 113.782 103.491C113.701 103.288 113.661 103.046 113.661 102.803V102.398C113.661 102.156 113.701 101.913 113.782 101.711C113.863 101.508 113.985 101.347 114.146 101.185C114.308 101.023 114.551 100.901 114.834 100.821C115.117 100.74 115.441 100.699 115.846 100.699H121.793V101.751H115.846C115.279 101.751 114.956 101.953 114.956 102.398V102.843C114.956 103.288 115.239 103.491 115.846 103.491H119.972C120.377 103.491 120.701 103.531 120.984 103.612C121.267 103.693 121.51 103.814 121.672 103.976C121.833 104.138 121.995 104.3 122.036 104.502C122.117 104.705 122.157 104.947 122.157 105.19V106.04C122.157 106.282 122.117 106.525 122.036 106.727C121.955 106.93 121.833 107.092 121.672 107.253C121.51 107.415 121.267 107.537 120.984 107.618C120.701 107.698 120.377 107.739 119.972 107.739H113.863ZM127.943 107.739V101.751H124.261V100.699H132.838V101.751H129.237V107.739H127.943Z" fill="white"/>
<path fill-rule="evenodd" clip-rule="evenodd" d="M106.702 74.0809L133 86.2588H80C88.8198 82.1725 97.6802 78.0863 106.5 74L106.702 74.0809ZM133 115.105H80V114.134H133V115.105ZM133 112.395H80V111.909H133V112.395ZM89.0221 84.3977H90.1145L106.5 76.8321L122.885 84.3977H123.978L106.5 76.3061L89.0221 84.3977ZM118.435 80.5946L106.5 75.0923L84.4504 85.2878H128.509L118.435 80.5946Z" fill="white"/>
<path d="M150.18 91L148.2 84H149.41L150.88 89.47L152.47 84H153.53L155.11 89.47L156.58 84H157.79L155.81 91H154.48L153 85.89L151.51 91H150.18ZM161.985 86H163.065V91H161.985V90.28C161.578 90.8467 160.995 91.13 160.235 91.13C159.548 91.13 158.961 90.8767 158.475 90.37C157.988 89.8567 157.745 89.2333 157.745 88.5C157.745 87.76 157.988 87.1367 158.475 86.63C158.961 86.1233 159.548 85.87 160.235 85.87C160.995 85.87 161.578 86.15 161.985 86.71V86ZM159.275 89.65C159.575 89.95 159.951 90.1 160.405 90.1C160.858 90.1 161.235 89.95 161.535 89.65C161.835 89.3433 161.985 88.96 161.985 88.5C161.985 88.04 161.835 87.66 161.535 87.36C161.235 87.0533 160.858 86.9 160.405 86.9C159.951 86.9 159.575 87.0533 159.275 87.36C158.975 87.66 158.825 88.04 158.825 88.5C158.825 88.96 158.975 89.3433 159.275 89.65ZM165.403 86.84C165.677 86.22 166.19 85.91 166.943 85.91V87.08C166.53 87.0533 166.17 87.1533 165.863 87.38C165.557 87.6 165.403 87.9667 165.403 88.48V91H164.323V86H165.403V86.84ZM168.357 88.96C168.437 89.34 168.62 89.6333 168.907 89.84C169.194 90.04 169.544 90.14 169.957 90.14C170.53 90.14 170.96 89.9333 171.247 89.52L172.137 90.04C171.644 90.7667 170.914 91.13 169.947 91.13C169.134 91.13 168.477 90.8833 167.977 90.39C167.477 89.89 167.227 89.26 167.227 88.5C167.227 87.7533 167.474 87.13 167.967 86.63C168.46 86.1233 169.094 85.87 169.867 85.87C170.6 85.87 171.2 86.1267 171.667 86.64C172.14 87.1533 172.377 87.7767 172.377 88.51C172.377 88.6233 172.364 88.7733 172.337 88.96H168.357ZM168.347 88.08H171.287C171.214 87.6733 171.044 87.3667 170.777 87.16C170.517 86.9533 170.21 86.85 169.857 86.85C169.457 86.85 169.124 86.96 168.857 87.18C168.59 87.4 168.42 87.7 168.347 88.08ZM175.957 85.87C176.531 85.87 176.994 86.0533 177.347 86.42C177.701 86.7867 177.877 87.29 177.877 87.93V91H176.797V88.04C176.797 87.6667 176.697 87.38 176.497 87.18C176.297 86.98 176.024 86.88 175.677 86.88C175.297 86.88 174.991 87 174.757 87.24C174.524 87.4733 174.407 87.8333 174.407 88.32V91H173.327V84H174.407V86.64C174.734 86.1267 175.251 85.87 175.957 85.87ZM181.4 91.13C180.667 91.13 180.043 90.8767 179.53 90.37C179.017 89.8633 178.76 89.24 178.76 88.5C178.76 87.76 179.017 87.1367 179.53 86.63C180.043 86.1233 180.667 85.87 181.4 85.87C182.14 85.87 182.763 86.1233 183.27 86.63C183.783 87.1367 184.04 87.76 184.04 88.5C184.04 89.24 183.783 89.8633 183.27 90.37C182.763 90.8767 182.14 91.13 181.4 91.13ZM180.29 89.63C180.59 89.93 180.96 90.08 181.4 90.08C181.84 90.08 182.21 89.93 182.51 89.63C182.81 89.33 182.96 88.9533 182.96 88.5C182.96 88.0467 182.81 87.67 182.51 87.37C182.21 87.07 181.84 86.92 181.4 86.92C180.96 86.92 180.59 87.07 180.29 87.37C179.99 87.67 179.84 88.0467 179.84 88.5C179.84 88.9533 179.99 89.33 180.29 89.63ZM188.387 86H189.467V91H188.387V90.36C188.06 90.8733 187.543 91.13 186.837 91.13C186.263 91.13 185.8 90.9467 185.447 90.58C185.093 90.2133 184.917 89.71 184.917 89.07V86H185.997V88.96C185.997 89.3333 186.097 89.62 186.297 89.82C186.497 90.02 186.77 90.12 187.117 90.12C187.497 90.12 187.803 90.0033 188.037 89.77C188.27 89.53 188.387 89.1667 188.387 88.68V86ZM191.67 87.38C191.67 87.5467 191.76 87.68 191.94 87.78C192.127 87.8733 192.35 87.9567 192.61 88.03C192.877 88.0967 193.144 88.1767 193.41 88.27C193.677 88.3633 193.9 88.5233 194.08 88.75C194.267 88.97 194.36 89.25 194.36 89.59C194.36 90.07 194.174 90.4467 193.8 90.72C193.434 90.9933 192.97 91.13 192.41 91.13C191.917 91.13 191.494 91.0267 191.14 90.82C190.787 90.6133 190.53 90.3267 190.37 89.96L191.3 89.42C191.474 89.9 191.844 90.14 192.41 90.14C192.977 90.14 193.26 89.9533 193.26 89.58C193.26 89.42 193.167 89.29 192.98 89.19C192.8 89.09 192.577 89.0067 192.31 88.94C192.05 88.8667 191.787 88.7833 191.52 88.69C191.254 88.5967 191.027 88.4433 190.84 88.23C190.66 88.01 190.57 87.7333 190.57 87.4C190.57 86.94 190.744 86.57 191.09 86.29C191.444 86.01 191.88 85.87 192.4 85.87C192.814 85.87 193.18 85.9633 193.5 86.15C193.827 86.33 194.077 86.5833 194.25 86.91L193.34 87.42C193.167 87.04 192.854 86.85 192.4 86.85C192.194 86.85 192.02 86.8967 191.88 86.99C191.74 87.0767 191.67 87.2067 191.67 87.38ZM196.033 88.96C196.113 89.34 196.296 89.6333 196.583 89.84C196.869 90.04 197.219 90.14 197.633 90.14C198.206 90.14 198.636 89.9333 198.923 89.52L199.813 90.04C199.319 90.7667 198.589 91.13 197.623 91.13C196.809 91.13 196.153 90.8833 195.653 90.39C195.153 89.89 194.903 89.26 194.903 88.5C194.903 87.7533 195.149 87.13 195.643 86.63C196.136 86.1233 196.769 85.87 197.543 85.87C198.276 85.87 198.876 86.1267 199.343 86.64C199.816 87.1533 200.053 87.7767 200.053 88.51C200.053 88.6233 200.039 88.7733 200.013 88.96H196.033ZM196.023 88.08H198.963C198.889 87.6733 198.719 87.3667 198.453 87.16C198.193 86.9533 197.886 86.85 197.533 86.85C197.133 86.85 196.799 86.96 196.533 87.18C196.266 87.4 196.096 87.7 196.023 88.08ZM202.183 87.15C202.036 87.2967 201.86 87.37 201.653 87.37C201.446 87.37 201.27 87.2967 201.123 87.15C200.976 87.0033 200.903 86.8267 200.903 86.62C200.903 86.4067 200.973 86.23 201.113 86.09C201.26 85.9433 201.44 85.87 201.653 85.87C201.86 85.87 202.036 85.9433 202.183 86.09C202.33 86.2367 202.403 86.4133 202.403 86.62C202.403 86.8267 202.33 87.0033 202.183 87.15ZM202.183 90.9C202.036 91.0467 201.86 91.12 201.653 91.12C201.446 91.12 201.27 91.0467 201.123 90.9C200.976 90.7533 200.903 90.5767 200.903 90.37C200.903 90.1633 200.973 89.9867 201.113 89.84C201.26 89.6933 201.44 89.62 201.653 89.62C201.86 89.62 202.036 89.6933 202.183 89.84C202.33 89.9867 202.403 90.1633 202.403 90.37C202.403 90.5767 202.33 90.7533 202.183 90.9Z" fill="#F9FCFF"/>
<path d="M153.472 113.252C152.224 113.252 151.174 112.976 150.322 112.424C149.47 111.86 148.87 111.098 148.522 110.138L150.646 108.896C151.138 110.18 152.104 110.822 153.544 110.822C154.24 110.822 154.75 110.696 155.074 110.444C155.398 110.192 155.56 109.874 155.56 109.49C155.56 109.046 155.362 108.704 154.966 108.464C154.57 108.212 153.862 107.942 152.842 107.654C152.278 107.486 151.798 107.318 151.402 107.15C151.018 106.982 150.628 106.76 150.232 106.484C149.848 106.196 149.554 105.836 149.35 105.404C149.146 104.972 149.044 104.468 149.044 103.892C149.044 102.752 149.446 101.846 150.25 101.174C151.066 100.49 152.044 100.148 153.184 100.148C154.204 100.148 155.098 100.4 155.866 100.904C156.646 101.396 157.252 102.086 157.684 102.974L155.596 104.18C155.092 103.1 154.288 102.56 153.184 102.56C152.668 102.56 152.26 102.68 151.96 102.92C151.672 103.148 151.528 103.448 151.528 103.82C151.528 104.216 151.69 104.54 152.014 104.792C152.35 105.032 152.986 105.296 153.922 105.584C154.306 105.704 154.594 105.8 154.786 105.872C154.99 105.932 155.26 106.034 155.596 106.178C155.944 106.31 156.208 106.436 156.388 106.556C156.58 106.676 156.796 106.838 157.036 107.042C157.276 107.246 157.456 107.456 157.576 107.672C157.708 107.888 157.816 108.152 157.9 108.464C157.996 108.764 158.044 109.094 158.044 109.454C158.044 110.618 157.618 111.542 156.766 112.226C155.926 112.91 154.828 113.252 153.472 113.252ZM160.708 102.92C160.324 102.92 159.988 102.782 159.7 102.506C159.424 102.218 159.286 101.882 159.286 101.498C159.286 101.114 159.424 100.778 159.7 100.49C159.988 100.202 160.324 100.058 160.708 100.058C161.104 100.058 161.44 100.202 161.716 100.49C162.004 100.778 162.148 101.114 162.148 101.498C162.148 101.882 162.004 102.218 161.716 102.506C161.44 102.782 161.104 102.92 160.708 102.92ZM159.556 113V104H161.878V113H159.556ZM169.007 103.748C169.991 103.748 170.801 104.078 171.437 104.738C172.085 105.398 172.409 106.31 172.409 107.474V113H170.087V107.762C170.087 107.162 169.925 106.706 169.601 106.394C169.277 106.07 168.845 105.908 168.305 105.908C167.705 105.908 167.225 106.094 166.865 106.466C166.505 106.838 166.325 107.396 166.325 108.14V113H164.003V104H166.325V105.008C166.889 104.168 167.783 103.748 169.007 103.748ZM181.286 104H183.554V112.568C183.554 113.96 183.092 115.022 182.168 115.754C181.256 116.486 180.152 116.852 178.856 116.852C177.884 116.852 177.026 116.666 176.282 116.294C175.55 115.922 174.986 115.376 174.59 114.656L176.57 113.522C177.026 114.362 177.812 114.782 178.928 114.782C179.66 114.782 180.236 114.59 180.656 114.206C181.076 113.822 181.286 113.276 181.286 112.568V111.596C180.602 112.508 179.642 112.964 178.406 112.964C177.134 112.964 176.066 112.52 175.202 111.632C174.35 110.732 173.924 109.64 173.924 108.356C173.924 107.084 174.356 105.998 175.22 105.098C176.084 104.198 177.146 103.748 178.406 103.748C179.642 103.748 180.602 104.204 181.286 105.116V104ZM176.948 110.138C177.428 110.594 178.034 110.822 178.766 110.822C179.498 110.822 180.098 110.594 180.566 110.138C181.046 109.67 181.286 109.076 181.286 108.356C181.286 107.648 181.046 107.066 180.566 106.61C180.098 106.142 179.498 105.908 178.766 105.908C178.034 105.908 177.428 106.142 176.948 106.61C176.48 107.066 176.246 107.648 176.246 108.356C176.246 109.076 176.48 109.67 176.948 110.138ZM192.5 104H194.822V113H192.5V111.938C191.804 112.814 190.826 113.252 189.566 113.252C188.366 113.252 187.334 112.796 186.47 111.884C185.618 110.96 185.192 109.832 185.192 108.5C185.192 107.168 185.618 106.046 186.47 105.134C187.334 104.21 188.366 103.748 189.566 103.748C190.826 103.748 191.804 104.186 192.5 105.062V104ZM188.216 110.336C188.684 110.804 189.278 111.038 189.998 111.038C190.718 111.038 191.312 110.804 191.78 110.336C192.26 109.856 192.5 109.244 192.5 108.5C192.5 107.756 192.26 107.15 191.78 106.682C191.312 106.202 190.718 105.962 189.998 105.962C189.278 105.962 188.684 106.202 188.216 106.682C187.748 107.15 187.514 107.756 187.514 108.5C187.514 109.244 187.748 109.856 188.216 110.336ZM202.165 103.748C203.377 103.748 204.409 104.21 205.261 105.134C206.125 106.046 206.557 107.168 206.557 108.5C206.557 109.832 206.125 110.96 205.261 111.884C204.409 112.796 203.377 113.252 202.165 113.252C200.905 113.252 199.933 112.814 199.249 111.938V116.6H196.927V104H199.249V105.062C199.933 104.186 200.905 103.748 202.165 103.748ZM199.951 110.336C200.419 110.804 201.013 111.038 201.733 111.038C202.453 111.038 203.047 110.804 203.515 110.336C203.995 109.856 204.235 109.244 204.235 108.5C204.235 107.756 203.995 107.15 203.515 106.682C203.047 106.202 202.453 105.962 201.733 105.962C201.013 105.962 200.419 106.202 199.951 106.682C199.483 107.15 199.249 107.756 199.249 108.5C199.249 109.244 199.483 109.856 199.951 110.336ZM215.863 111.884C214.939 112.796 213.811 113.252 212.479 113.252C211.147 113.252 210.019 112.796 209.095 111.884C208.183 110.96 207.727 109.832 207.727 108.5C207.727 107.168 208.183 106.046 209.095 105.134C210.019 104.21 211.147 103.748 212.479 103.748C213.811 103.748 214.939 104.21 215.863 105.134C216.787 106.046 217.249 107.168 217.249 108.5C217.249 109.832 216.787 110.96 215.863 111.884ZM210.733 110.282C211.201 110.75 211.783 110.984 212.479 110.984C213.175 110.984 213.757 110.75 214.225 110.282C214.693 109.814 214.927 109.22 214.927 108.5C214.927 107.78 214.693 107.186 214.225 106.718C213.757 106.25 213.175 106.016 212.479 106.016C211.783 106.016 211.201 106.25 210.733 106.718C210.277 107.186 210.049 107.78 210.049 108.5C210.049 109.22 210.277 109.814 210.733 110.282ZM221.204 105.548C221.42 104.972 221.774 104.54 222.266 104.252C222.77 103.964 223.328 103.82 223.94 103.82V106.412C223.232 106.328 222.596 106.472 222.032 106.844C221.48 107.216 221.204 107.834 221.204 108.698V113H218.882V104H221.204V105.548ZM226.926 109.454C227.238 110.582 228.084 111.146 229.464 111.146C230.352 111.146 231.024 110.846 231.48 110.246L233.352 111.326C232.464 112.61 231.156 113.252 229.428 113.252C227.94 113.252 226.746 112.802 225.846 111.902C224.946 111.002 224.496 109.868 224.496 108.5C224.496 107.144 224.94 106.016 225.828 105.116C226.716 104.204 227.856 103.748 229.248 103.748C230.568 103.748 231.654 104.204 232.506 105.116C233.37 106.028 233.802 107.156 233.802 108.5C233.802 108.8 233.772 109.118 233.712 109.454H226.926ZM226.89 107.654H231.48C231.348 107.042 231.072 106.586 230.652 106.286C230.244 105.986 229.776 105.836 229.248 105.836C228.624 105.836 228.108 105.998 227.7 106.322C227.292 106.634 227.022 107.078 226.89 107.654Z" fill="#F9FCFF"/>
<defs>
<filter id="filter0_d" x="0" y="0" width="322.5" height="223.863" filterUnits="userSpaceOnUse" color-interpolation-filters="sRGB">
<feFlood flood-opacity="0" result="BackgroundImageFix"/>
<feColorMatrix in="SourceAlpha" type="matrix" values="0 0 0 0 0 0 0 0 0 0 0 0 0 0 0 0 0 0 127 0" result="hardAlpha"/>
<feOffset dy="5"/>
<feGaussianBlur stdDeviation="30"/>
<feComposite in2="hardAlpha" operator="out"/>
<feColorMatrix type="matrix" values="0 0 0 0 0.027451 0 0 0 0 0.137255 0 0 0 0 0.160784 0 0 0 0.08 0"/>
<feBlend mode="normal" in2="BackgroundImageFix" result="effect1_dropShadow"/>
<feBlend mode="normal" in="SourceGraphic" in2="effect1_dropShadow" result="shape"/>
</filter>
</defs>
</svg>
